<?xml version="1.0" encoding="UTF-8"?> <svg xmlns="http://www.w3.org/2000/svg" viewBox="0 0 3860.84 1831.51"><defs><style>.cls-1{fill:#376cb5;}.cls-2{fill:#00a6a6;}.cls-3{fill:#f68c39;}.cls-4{fill:#644ea0;}.cls-5{fill:#50be98;}.cls-6{fill:#fff;}.cls-7{fill:#515251;}</style></defs><title>devops-loop</title><g id="Layer_2" data-name="Layer 2"><g id="Objects"><path class="cls-1" d="M2621.63,1357.14q-77.15-52.08-160.72-123.77c-132-113.36-247.22-239.5-325.69-330,104-108.65,196.47-198.8,280.63-272.66l25.27-246.8-236.6-24.24c-88.31,76.59-184.54,169-292.74,280.84L1676.1,893.25c-25.09,27.46-49,53.76-71.53,78.5C1451,1140.47,1344,1256.52,1255.78,1335.16l205.31,21-28.6,279.18c122.07-98.79,246.9-235.9,425.92-432.51,13.88-15.25,27.89-30.61,42.12-46.25,84.24,95.7,201.28,220.92,336.69,337.22q78.42,67.37,154.81,121.72l-3.71-255Z"></path><path class="cls-2" d="M3516,406.77l-235.83,41.94c-86.32-66.4-185.14-105.4-276.45-105.4-178.63,0-350.11,78.79-587.88,287.43l25.27-246.8-236.6-24.24C2280.72,293.62,2351,239.26,2418,194.31,2615.43,61.76,2801.56,0,3003.73,0c160.86,0,325.75,58.61,469.13,164.19Z"></path><path class="cls-3" d="M3860.84,910.8A910.5,910.5,0,0,1,3788.5,1267a928.5,928.5,0,0,1-81.87,152.54l-221.91,25.84-31.54-270.75a575.45,575.45,0,0,0,64.35-263.79c0-191-103.74-359.34-237.35-462.09L3516,406.77l-43.15-242.58a966.71,966.71,0,0,1,119.38,104.05c82,84.1,147,180.33,193.21,286C3835.46,668.68,3860.84,788.66,3860.84,910.8Z"></path><path class="cls-4" d="M3706.63,1419.5a939.21,939.21,0,0,1-112.94,139.28c-83.35,84.83-179.94,151.69-287.11,198.69-112,49.13-230.12,74-350.95,74-122.39,0-253.7-36.45-390.35-108.33q-55.49-29.21-113.08-66.72-29.84-19.32-60.17-40.91l-3.71-255,233.31-3.4h.07a1118.38,1118.38,0,0,0,97.68,59.25c88.45,47.43,168.08,71.81,236.25,71.81,212.82,0,402.56-129.08,497.55-313.61l31.54,270.75Z"></path><path class="cls-4" d="M1461.09,1356.19l-28.6,279.18q-22.18,17.94-44.38,34.29c-154.35,113.44-305,161.85-503.92,161.85-201.6,0-419-85.79-581.58-229.45A894,894,0,0,1,175.83,1464l287,22.16,15-194.1A546.39,546.39,0,0,0,530,1344.83c119.6,105.71,261.38,143.37,354.22,143.37,146.06,0,236.92-33,371.59-153Z"></path><path class="cls-3" d="M343.31,910.8c0,177.82,64.91,300.66,134.53,381.25l-15,194.1-287-22.16A874.74,874.74,0,0,1,85.44,1311.8C28.74,1189.73,0,1054.82,0,910.8,0,767,27.5,633.14,81.72,513.06A847.84,847.84,0,0,1,294.79,224.43q21-18.59,43.28-35.79l3.58,270.48,213.63-2.83C436.54,545.37,343.31,691.65,343.31,910.8Z"></path><path class="cls-2" d="M1277.37,266.47l3.54,242.87c-147.7-108.94-283.47-166-396.72-166-98.29,0-223.62,34-328.91,113l-213.63,2.83-3.58-270.48C493.66,68.2,689.7,0,884.19,0c201,0,415.93,88.38,639.79,262.86Z"></path><path class="cls-5" d="M1911.78,640.54,1676.1,893.25c-72.23-85.3-181.24-207.23-308.3-315q-44.07-37.32-86.89-68.91l-3.54-242.87L1524,262.86q32.82,25.54,65.84,53.55C1721.23,427.83,1832.75,548.94,1911.78,640.54Z"></path><path class="cls-5" d="M2388.32,1360.54l3.71,255q-76.19-54.21-154.81-121.72c-135.41-116.3-252.45-241.52-336.69-337.22L2135.22,903.4c78.47,90.47,193.67,216.61,325.69,330q83.45,71.67,160.72,123.77Z"></path><path class="cls-6" d="M553.6,227.91c-9.68,5-15.21,12-16.56,20.47s1.47,17.73,8.06,27.75c13.84,20.85,28.67,26.26,46.4,17.18,7.5-3.81,15.72-10,25.17-18.4q4.27,9,8.42,18a102.1,102.1,0,0,1-26.36,18.83c-14.9,7.67-28.25,9.88-41.34,6.36s-25.06-12.49-36-27.42c-6.86-9.4-11-18.9-11.95-28.69a42.55,42.55,0,0,1,7-28.05c5.74-8.85,14.62-16.61,26.54-22.82a100.5,100.5,0,0,1,41.07-10.91q.23,10.44.64,20.85a141.37,141.37,0,0,0-16.44,2A51.81,51.81,0,0,0,553.6,227.91Z"></path><path class="cls-6" d="M742.54,205c4.1,18.13,1.63,32.85-6.1,44.37s-20.31,19.14-37.79,23.84-32,4.44-45-1.47-23.33-17.05-31.16-34S613.41,205.9,620,193s20.48-23.06,41.71-29.08,39.57-4.85,53.61,2.5S738.42,186.82,742.54,205Zm-92.92,23c4.69,11.61,10.62,19.52,17.78,23.86s15.53,5.06,25.51,2.36c19.87-5.32,27.34-19.41,20.72-43.79s-22.21-34.18-44.89-27.91c-11.31,3.17-18.55,8.82-21.67,16.52S644.94,216.32,649.62,227.93Z"></path><path class="cls-6" d="M882.45,198.46c0,18.53-6.67,32-18.65,41.21s-28.72,13.53-50.45,14.41q-17.42.72-34.55,2.56-7.74-55.33-20-110.38,22.71-2.73,45.83-3.86c24-1.16,43.59,4,57.34,14.28S882.44,181.11,882.45,198.46Zm-30.27-1c-1-24-15.9-36.84-43.18-35.76-5.39.23-10.75.53-16.11.9q5.85,36.18,9.76,72.43,5.77-.34,11.56-.57C840,233.57,853.18,222.18,852.18,197.46Z"></path><path class="cls-6" d="M980.53,273.42a550.16,550.16,0,0,0-73-14.95q4.68-55.79,4.87-112.32a661.34,661.34,0,0,1,86.87,16.23q-1.23,9.76-2.61,19.47-26.68-7-53.39-11.53-.78,12.36-1.77,24.69,23.92,4.22,47.88,10.41-1.49,9.68-3.12,19.32-23.22-6.11-46.47-10.26-1.37,14.45-3,28.81,23.84,4.36,47.7,10.88Q982.55,263.82,980.53,273.42Z"></path><path class="cls-6" d="M1535.42,456.67q-12.74,12.7-27.41,11.47t-29.31-15.9l-7.15-7.18-28,28-16.68-16.72,78.84-78.65,25.13,25.19q14.31,14.34,15.58,28T1535.42,456.67Zm-50.17-25.27,5.49,5.5q7.68,7.71,14.55,8.5t12.7-5q5.88-5.86,5.48-11.88t-7.23-12.85l-7.59-7.61Z"></path><path class="cls-6" d="M1496,525.68,1574.86,447l16.67,16.72-65,64.88,31.91,32-13.81,13.78Z"></path><path class="cls-6" d="M1606.4,636.34l13.07-24.44-28.68-28.74-24.47,13-18-18L1655.28,527l20.39,20.45-51.3,106.9Zm23.11-42.42q17.6-33.37,20-37.7t3.86-6.7q-8.68,5.1-44.31,23.86Z"></path><path class="cls-6" d="M1704,734.22,1682.85,713l25.43-93.79-.49-.49q-14.77,16.78-21.52,23.51l-37.1,37-14.9-14.93,78.84-78.66,21,21.09-24.9,93.15.38.38q14.56-16.14,20.93-22.49l37.32-37.22,15,15Z"></path><path class="cls-6" d="M1738.49,1086.22l30.49,29.94L1752.44,1133,1673,1055l22.73-23.15q15.9-16.2,29.44-18.18t25.54,9.81a29.54,29.54,0,0,1,8.68,16.11,35.74,35.74,0,0,1-2.17,19.33q44.41,8.38,57.57,10.63l-18.36,18.69-49.11-11Zm-13.7-13.45,5.34-5.43q7.84-8,8.92-14.41t-4.64-12q-5.64-5.55-11.85-4t-14.22,9.69l-5,5.11Z"></path><path class="cls-6" d="M1869.53,1013.76l-44.94,45.77-79.46-78,44.94-45.77,13.81,13.56-28.4,28.92,17.45,17.13,26.42-26.9,13.8,13.55-26.42,26.91,20.49,20.12,28.4-28.92Z"></path><path class="cls-6" d="M1885.81,997.19l-79.46-78,16.54-16.85,65.55,64.36,31.65-32.23L1934,948.11Z"></path><path class="cls-6" d="M1992.5,888.54l-44.94,45.76-79.46-78L1913,810.51l13.8,13.56L1898.45,853l17.45,17.13,26.41-26.9,13.81,13.55-26.42,26.91,20.49,20.12,28.39-28.92Z"></path><path class="cls-6" d="M2056.54,823.31,2032,810.5l-28.45,29,13.26,24.34L1999,882l-52.24-106.39,20.22-20.6,107.44,50.19Zm-42.65-22.66q-33.56-17.25-37.91-19.56c-2.9-1.53-5.15-2.8-6.74-3.79q5.19,8.63,24.31,44.06Z"></path><path class="cls-6" d="M2108.18,726.59q10.77,10.56,9.35,24.39t-15,27.64q-12.5,12.72-26.88,17.8L2060,781.05a129.32,129.32,0,0,0,18.42-8.65,56.06,56.06,0,0,0,11.47-8.75c3.63-3.7,5.71-7.22,6.24-10.59s-.61-6.41-3.4-9.15a9.81,9.81,0,0,0-5.44-2.78,20.57,20.57,0,0,0-7.27.39,138.88,138.88,0,0,0-15.49,5q-10.58,3.91-17.3,4.46a34.48,34.48,0,0,1-13-1.38,29.26,29.26,0,0,1-11.92-7.44q-10.54-10.35-9.56-23.42t13.37-25.68a65.24,65.24,0,0,1,13.07-10.38,113.51,113.51,0,0,1,15.69-7.71l7.76,18.29a112.23,112.23,0,0,0-14,6.94,47.56,47.56,0,0,0-9.06,7.17c-3.14,3.19-4.79,6.36-5,9.52a10.27,10.27,0,0,0,3.31,8.27,10,10,0,0,0,4.9,2.78,16,16,0,0,0,6.43-.13q3.76-.74,16.06-5.21,16.26-5.91,25.68-4.79T2108.18,726.59Z"></path><path class="cls-6" d="M2189.33,688.09l-44.94,45.76-79.46-78,44.94-45.76,13.8,13.56-28.39,28.91,17.45,17.13,26.41-26.9L2153,656.32l-26.42,26.9L2147,703.34l28.39-28.91Z"></path><path class="cls-6" d="M2612.27,1607.81q5.85-46.56,15.23-91.92l-.67-.41c-8.19,15.82-13.74,26.32-16.78,31.42q-13.23,22.27-26.42,44.55-11.51-6.87-22.83-14.17,30-47,60.06-93.79,14.86,9.59,30.08,18.34-8.71,44.13-14,89.42l.5.26q34.62-30,66.24-62.27,15.72,7.34,31.7,13.84-20.91,51.6-41.66,103.28-12.7-5.16-25.27-10.77,10.67-24.12,21.34-48.21c1-2.27,2.22-4.88,3.61-7.81s5.26-10.67,11.56-23.21l-.7-.31q-32.31,33.35-67.81,64.38Q2624.27,1614.34,2612.27,1607.81Z"></path><path class="cls-6" d="M2856.62,1636.47c-3.37,18.11-11.19,31.11-24,38.53s-29.75,8.7-50.09,3.11-34.39-15.42-41.75-28.39-7.58-28.28-1.24-45.68,16-28.91,28.6-34.93,27.26-6.37,44.72-1.56,29.74,12.59,37.28,24.27S2860,1618.29,2856.62,1636.47Zm-90.18-23c-3.79,11.85-4,21.64-.49,29.33s10.82,13.2,21.74,16.21c22,6,35.84-3.94,41.24-28.33,5.45-24.54-1.72-38.82-21.29-44.17-9.87-2.71-18.13-1.92-25,2.55S2770.25,1601.61,2766.44,1613.46Z"></path><path class="cls-6" d="M2994.49,1705.39q-18.31,0-36.61-.9a807.85,807.85,0,0,1-49-88.63l-.75-.09c-.75,14.9-1.43,25.51-2.18,31.81q-3.08,26-6.12,52.05-12.81-1.53-25.58-3.49,8.23-55.08,16.64-110.12,15.53,2.37,31.12,4a786.81,786.81,0,0,0,48.12,86.94l.63,0c-.47-14.5-.57-24.74-.37-30.73q.84-26.34,1.72-52.68,11.16.38,22.33.4Q2994.38,1649.7,2994.49,1705.39Z"></path><path class="cls-6" d="M3028.67,1704.72q-2.49-55.63-4.79-111.26,12.39-.51,24.75-1.45,4.3,55.52,8.79,111Q3043.05,1704.13,3028.67,1704.72Z"></path><path class="cls-6" d="M3143.3,1691.74q-14.19,2.65-28.45,4.79-7-45.33-13.83-90.67-16.17,2.42-32.42,4.09l-2-19.55a690.57,690.57,0,0,0,87.18-14.65q2.27,9.55,4.52,19.13-16,3.73-32.05,6.75Q3134.7,1646.69,3143.3,1691.74Z"></path><path class="cls-6" d="M3294.78,1587c7.46,16.85,8.3,32,1.82,45.43s-19.81,24-39.73,30.89-37,6.63-50.24,0-22-19.11-26.64-37.05-3.14-32.9,3.72-44.93,18.7-20.58,35.79-26.45,31.68-6.4,44.57-1S3287.3,1570.12,3294.78,1587Zm-87.52,32c3.55,11.93,8.86,20.15,16.09,24.51s16.31,4.82,27,1.14c21.54-7.46,27.43-23.5,18.11-46.68s-23.41-31-42.56-24.42c-9.65,3.32-16,8.62-19.15,16.21S3203.72,1607.07,3207.26,1619Z"></path><path class="cls-6" d="M3349.58,1575.14q10,18.87,20.08,37.73-13,6.89-26.27,13.26-24.36-50.07-48.57-100.22,15.66-7.54,31-15.9c14.29-7.8,26-11.68,35.73-11.17s17.62,5.31,23.7,14.75a26.37,26.37,0,0,1,4.13,18.08c-.84,6.55-3.83,13.12-9,19.59a623.18,623.18,0,0,0,59.91,19.57q-13.81,9.21-27.9,17.79-25.47-9.49-49.67-20.55Q3356.16,1571.67,3349.58,1575.14Zm-9-17q3.89-2.06,7.74-4.15c7.58-4.11,12.5-8.37,14.8-12.56s2.05-8.61-.66-13.19-6.36-6.74-11-6.65-10.59,2.21-18,6.23q-3.48,1.89-7,3.73Q3333.52,1544.91,3340.58,1558.19Z"></path><path class="cls-6" d="M2779.68,233.89c6.72,17.08,6.32,32.24-.25,45.6s-19.06,24.27-37.65,34q-14.9,7.81-29.43,16.54-28.72-47.71-57.63-95.3,19.17-11.52,38.88-21.72c20.52-10.6,38.93-13.5,54.09-9.52S2773.39,217.89,2779.68,233.89Zm-26,11.52c-9.58-21.82-26.45-27.83-49.79-15.93q-6.88,3.56-13.72,7.26,17.45,31.78,34.81,63.62,4.92-2.67,9.87-5.24C2757,283.71,2763.52,267.86,2753.68,245.41Z"></path><path class="cls-6" d="M2888,260.09a587.43,587.43,0,0,0-64.69,18.22q-18.18-52.63-36.56-105.2a697.81,697.81,0,0,1,77-21.71q2.13,9.45,4.25,18.88-23.93,5.29-47.51,12.32,3.53,11.7,7.06,23.41,21.14-6.3,42.59-11.15l4.32,18.86q-20.8,4.69-41.34,10.81,4.14,13.75,8.26,27.51,21-6.27,42.44-11Q2885.88,250.58,2888,260.09Z"></path><path class="cls-6" d="M2988.29,170.18c.5,12-3.47,21.27-11.51,28.1s-19.56,10.85-34.82,12.62q-5.6.65-11.19,1.41,2.68,19.62,5.35,39.24-12.2,1.65-24.34,3.8Q2902,200.54,2892,145.76q21.75-3.88,43.67-6.37c16.66-1.88,29.65.14,38.6,5.43S2987.81,158.67,2988.29,170.18Zm-60.15,23c3-.4,5.89-.78,8.84-1.13,8.27-1,14.31-3,18.19-6.27s5.62-7.56,5.16-13-2.6-9.45-6.45-11.76-9.68-3.08-17.41-2.18q-6.43.74-12.85,1.61Q2925.89,176.76,2928.14,193.14Z"></path><path class="cls-6" d="M3013.38,246.28q-.18-55.68-.55-111.37,14.64,0,29.27.54-1.62,45.9-3.36,91.8,24.32,1,48.55,3.86-1.14,9.69-2.3,19.37A587.9,587.9,0,0,0,3013.38,246.28Z"></path><path class="cls-6" d="M3226.35,226.13c-6,17.44-15.55,29.06-27.94,35.48s-26.92,7.2-44.29,2.95-29.78-11.57-37.8-23-11-26.16-8.41-44.52,9.91-31.65,22.59-39.42,29.83-9.55,50.69-4.47,35.38,14.67,43,27.46S3232.39,208.68,3226.35,226.13Zm-90.47-24.22c-2.3,12.24-1.42,21.93,2.41,29.13s10.61,11.86,20.5,14.27c19.7,4.87,33.05-3.95,40.29-28s-.17-39.55-22.47-45.06c-11.13-2.71-20.26-1.41-27.11,3.64S3138.18,189.69,3135.88,201.91Z"></path><path class="cls-6" d="M3292.77,242.72q22.18-14.91,45.89-28.44,14.45,7.53,28.62,15.78a696.26,696.26,0,0,0-71.69,38.63q-9.57,19.44-19.17,38.88-11.3-5.6-22.76-10.68,8.61-19.49,17.19-39a732.23,732.23,0,0,0-15.71-80.48q15.17,5.53,30.13,11.8Q3290,216.08,3292.77,242.72Z"></path><path class="cls-6" d="M3639.41,627.94c-17,7.12-32,7.77-45.1,2.72s-23.35-15.55-31.82-31.72-11.37-30.69-8.22-44.52,12.17-25.94,27.71-36.06,30.43-13.23,44.77-8.59,27.11,16.61,37.2,35.79,12.52,36.37,8.05,50.57S3656.45,620.82,3639.41,627.94Zm-42.26-84.67c-10.7,6.34-17.38,13.45-20.2,21.19s-1.76,16.08,3.06,25.26c9.56,18.31,25,22.49,47.82,12s29.48-26.35,18.75-46.92c-5.39-10.25-12.46-16.37-20.82-18.26S3607.85,536.93,3597.15,543.27Z"></path><path class="cls-6" d="M3694.85,732.57c-11.68,2.74-21.55.58-29.77-6.09s-14.32-17.32-18.88-32.12q-1.68-5.45-3.45-10.85-18.81,6.21-37.63,12.39-3.88-11.86-8.24-23.6,52.17-19.45,104.29-39.07,7.73,20.76,14.19,41.89c4.9,16,5.32,29.16,1.78,38.93S3706.07,729.94,3694.85,732.57Zm-33.73-55.12q1.4,4.26,2.74,8.54c2.5,8,5.61,13.6,9.52,16.84s8.47,4.15,13.76,2.69,8.79-4.31,10.36-8.53,1.24-10.1-1.06-17.55q-1.91-6.21-3.93-12.38Z"></path><path class="cls-6" d="M3634.3,838.34a638.42,638.42,0,0,0-9.43-66.65Q3679.5,760.94,3734.1,750a747.68,747.68,0,0,1,11.11,78.28L3726,830q-2.14-24.22-5.9-48.3l-24.15,3.85q3.38,21.63,5.4,43.42L3682,830.85q-2-21.18-5.25-42.23l-28.36,4.48q3.38,21.66,5.29,43.5Z"></path><path class="cls-6" d="M3679.46,886.86q-21.36.28-42.73.54-.14-12.39-.75-24.76,55.61-2.82,111.21-5.83,1,20,.94,40c-.06,18.65-3.51,32.39-9.51,40.92s-14.75,12.27-25.93,11.43a27.24,27.24,0,0,1-17-7.49c-4.82-4.46-8.44-10.48-11-18-25.85,17.85-43.1,27.66-50.87,32.34q1.32-13.71,2.06-27.45,22.08-12.83,43.6-27.54Q3679.55,893.9,3679.46,886.86Zm19.2-.26q0,4.38,0,8.77c0,8.58,1.08,14.94,3.45,19.12s6.19,6.38,11.52,6.57,9.12-1.84,11.48-6.13,3.64-11,3.64-20.16c0-2.87,0-5.73-.05-8.6Z"></path><path class="cls-6" d="M3619.68,1041.34q13.89-1.12,27.8-2.61,4.83-21.82,8.19-43.85-12.43-6.36-25-12.38,1.84-13.26,3.12-26.58a1017.74,1017.74,0,0,1,105.13,58.66q-2.85,17.64-6.56,35.18a987.25,987.25,0,0,1-119.44,17.68Q3616.6,1054.45,3619.68,1041.34Zm48.49-4.6c25.27-3.38,39.57-6,42.88-6.48s5.9-.88,7.79-1c-6-3.13-20.74-11.83-44.63-24.76Q3671.59,1020.65,3668.17,1036.74Z"></path><path class="cls-6" d="M3593.78,1125q4.54-11.79,8.62-23.69,43.41,14.78,86.87,29.44,6-17.43,11-35.08l18.91,5.34a748.48,748.48,0,0,1-36,99l-18-7.92q7.58-17,14.24-34.24Q3636.56,1141.49,3593.78,1125Z"></path><path class="cls-6" d="M3539.93,1232.82a644,644,0,0,0,33.62-61.1q50.2,24.06,100.51,48a754.55,754.55,0,0,1-39.4,71.71l-16.47-10.15q13.42-21.57,25.21-43.79l-21.64-11.38q-10.61,20-22.59,39.42l-16.5-10.09q11.65-18.92,22-38.35l-25.4-13.41q-10.63,20-22.73,39.46Z"></path><path class="cls-6" d="M753.7,1685.42q-14.1-3.11-28.09-6.81,11.75-44.34,23.5-88.66-15.48-4.1-30.79-9.07,3-9.35,6.08-18.69a564.86,564.86,0,0,0,83.5,20.25q-1.57,9.7-3.16,19.4-15.74-2.56-31.34-6Q763.55,1640.63,753.7,1685.42Z"></path><path class="cls-6" d="M888.43,1701.09a675.7,675.7,0,0,1-77.79-5.69q7.26-55.22,14.53-110.42a563.09,563.09,0,0,0,65,4.76q-.14,9.67-.29,19.34-21.29-.32-42.51-2.2l-2.16,24.36q20.58,1.82,41.21,2.24l-.39,19.34q-21.29-.43-42.52-2.31-1.28,14.31-2.53,28.61,23.85,2.1,47.79,2.47Z"></path><path class="cls-6" d="M991.88,1663.48c1.46,9.94-1.6,18.44-9.53,25.28s-19.89,11.11-35.58,12.23c-14.46,1-27.41-.75-38.5-5.07q-.15-11-.31-21.93a134.2,134.2,0,0,0,22.6,6.37,69.42,69.42,0,0,0,17,1c6.12-.45,10.73-1.87,13.79-4.15a9.6,9.6,0,0,0,4-9.28,9,9,0,0,0-2.7-5.58,23.7,23.7,0,0,0-6.6-4.31c-2.83-1.33-8.54-3.33-17-6.25-7.88-2.7-13.72-5.54-17.61-8.34a33.43,33.43,0,0,1-9.29-10,26.92,26.92,0,0,1-3.56-13.65c-.16-9.85,3.25-17.62,9.91-23.49s15.81-9.12,27.7-10.12a77,77,0,0,1,16.95.38,150.13,150.13,0,0,1,17.48,3.57q-2.57,9.64-5.38,19.27a159.79,159.79,0,0,0-16.07-3.25,56.88,56.88,0,0,0-12.12-.32c-4.67.39-8.18,1.67-10.55,3.91a10.17,10.17,0,0,0-3.3,8.37,9.47,9.47,0,0,0,1.88,5.35,16.18,16.18,0,0,0,5.27,4.16c2.38,1.28,8,3.51,17,6.43,11.89,3.85,20.44,7.74,25.44,12.12A27.5,27.5,0,0,1,991.88,1663.48Z"></path><path class="cls-6" d="M1071.91,1678.61q-14,3.71-28.1,6.81-9.84-44.79-19.69-89.58-15.6,3.44-31.34,6-1.59-9.71-3.17-19.4a565,565,0,0,0,83.51-20.25q3,9.35,6.07,18.69-15.3,5-30.79,9.07Q1060.16,1634.28,1071.91,1678.61Z"></path><path class="cls-6" d="M199.08,1156q-9.79-20-18.09-40.45c-7.55-18.66-10.07-33.23-8.59-43.1s7.13-16.17,16.5-19c6.37-1.93,12.13-1.71,17.29.51A23.5,23.5,0,0,1,218,1065.36l.73-.24c-1.16-8.27-.09-14.78,3-19.44s8.1-8,15-10c9.75-2.88,18.44-1.29,26.22,4.36s13.79,14.54,18.57,26.82q7.9,20.34,17.6,40.13ZM226.92,1111q-3.22-7.47-6.23-15c-2.81-7-5.64-11.81-8.67-14.33s-6.69-3-11-1.49a9.36,9.36,0,0,0-6.68,8.48c-.42,4.23.84,10.26,3.95,18q2.86,7.11,5.9,14.17Zm17.21-7.42,26.64-11.51q-3.31-7.69-6.4-15.48c-2.59-6.57-5.55-11-9-13.35s-7.65-2.69-12.49-1c-8.7,3-10.7,11.71-5.14,25.82Q240.79,1095.88,244.13,1103.6Z"></path><path class="cls-6" d="M136.11,918.84,208,914.27a40.36,40.36,0,0,1,22,4.5,40,40,0,0,1,15.7,15.43c4.05,6.83,6.73,15,8.24,24.65,2.28,14.55,1,26.42-4.29,36.21s-13.95,16.41-26.32,19.52L153.75,1032q-3.62-14.38-6.53-28.89l66.84-13.46c8.41-1.7,14.2-4.81,17.44-9.23s4.1-10.78,2.79-19.19c-1.26-8.15-4-13.8-8.47-17s-11-4.45-19.54-3.51l-67.61,7.49Q137.05,933.54,136.11,918.84Z"></path><path class="cls-6" d="M246.23,883.7l-111.36,1q-.13-14.78.42-29.54l111.28,4.18Q246.12,871.54,246.23,883.7Z"></path><path class="cls-6" d="M248.46,830.57,137.58,820.2q1.36-14.72,3.44-29.39l91,12.84q3.39-24,8.93-47.62l19,4.45A518.82,518.82,0,0,0,248.46,830.57Z"></path><path class="cls-6" d="M248.12,625.75c16.47,8.09,26.37,19.62,30.61,33.89s2.56,30.63-4.16,50q-5.37,15.57-9.72,31.36l-107.36-29.6q5.87-21.27,13.24-42.19c7.7-21.77,19.32-36.63,33.23-44.1S232.7,618.16,248.12,625.75ZM236.71,652c-21.81-9.57-38.37-2.39-47.23,22.23q-2.59,7.28-5,14.61l68.92,22.56q1.69-5.21,3.52-10.39C265.09,678,259.17,661.88,236.71,652Z"></path><path class="cls-7" d="M830.44,914.27q0,68-38.72,104.21t-111.85,36.18h-78V779.14h86.5q67.46,0,104.78,35.62T830.44,914.27Zm-60.68,1.5q0-88.75-78.4-88.76H660.27v179.41h25.06Q769.77,1006.42,769.76,915.77Z"></path><path class="cls-7" d="M1046.22,1054.66H887.54V779.14h158.68V827H946v60.5h93.28v47.86H946v71h100.25Z"></path><path class="cls-7" d="M1260.87,779.14h59l-93.66,275.52h-63.7L1069,779.14h59l51.83,164q4.34,14.5,9,33.83t5.75,26.85q2.07-17.34,14.13-60.68Z"></path><path class="cls-7" d="M2845.56,916.53q0,68.4-33.92,105.15t-97.25,36.75q-63.32,0-97.24-36.75t-33.92-105.53q0-68.79,34-105.06t97.53-36.28q63.51,0,97.15,36.56T2845.56,916.53Zm-201.08,0q0,46.17,17.52,69.54t52.39,23.37q69.92,0,69.92-92.91,0-93.1-69.54-93.1-34.87,0-52.58,23.46T2644.48,916.53Z"></path><path class="cls-7" d="M3093,865.08q0,44.48-27.8,68t-79.06,23.56h-25.06v98h-58.42V779.14h88q50.13,0,76.23,21.58T3093,865.08ZM2961.08,908.8h19.22q27,0,40.33-10.65t13.38-31q0-20.53-11.21-30.34t-35.15-9.8h-26.57Z"></path><path class="cls-7" d="M3307.65,978.15q0,37.32-26.86,58.8t-74.72,21.48q-44.1,0-78-16.58V987.57q27.88,12.45,47.21,17.53t35.33,5.09q19.23,0,29.5-7.35T3250.36,981a24.18,24.18,0,0,0-4.52-14.42q-4.53-6.31-13.29-12.15t-35.71-18.66Q3171.58,923.87,3159,913a85.74,85.74,0,0,1-20.17-25.44q-7.53-14.52-7.54-33.93,0-36.55,24.79-57.48t68.5-20.91a161.87,161.87,0,0,1,41,5.08,282.57,282.57,0,0,1,40.8,14.33L3287.48,840q-22-9-36.46-12.62a117.25,117.25,0,0,0-28.36-3.58q-16.59,0-25.45,7.72t-8.85,20.17a24.91,24.91,0,0,0,3.58,13.47q3.57,5.76,11.4,11.12t37,19.32q38.63,18.46,53,37T3307.65,978.15Z"></path></g></g></svg>
