<?xml version="1.0" encoding="utf-8"?>
<!-- Generator: Adobe Illustrator 26.0.3, SVG Export Plug-In . SVG Version: 6.00 Build 0)  -->
<svg version="1.1" id="Layer_1" xmlns="http://www.w3.org/2000/svg" xmlns:xlink="http://www.w3.org/1999/xlink" x="0px" y="0px"
	 viewBox="0 0 252.6 72.5" style="enable-background:new 0 0 252.6 72.5;" xml:space="preserve">
<style type="text/css">
	.st0{fill-rule:evenodd;clip-rule:evenodd;}
	.st1{fill-rule:evenodd;clip-rule:evenodd;fill:#62D84E;}
</style>
<g>
	<g>
		<path class="st0" d="M70.3,30.2c-2.3,0-4.3,0.8-6,2.1v-1.9h-5.4v21.1h5.6V38c0.8-1.1,2.7-2.6,5.1-2.6c0.9,0,1.6,0.1,2.3,0.3v-5.4
			C71.4,30.2,70.8,30.2,70.3,30.2"/>
		<path class="st0" d="M21,45.1c1.4,1.3,3.6,2.1,5.8,2.1c1.5,0,2.7-0.7,2.7-1.8c0-3.2-10.2-2-10.2-8.9c0-4.1,3.9-6.6,8.1-6.6
			c2.7,0,5.7,1,7.1,2.1l-2.6,4.1c-1.1-0.8-2.5-1.4-4-1.4c-1.6,0-2.9,0.6-2.9,1.7c0,2.7,10.2,1.7,10.2,9c0,4.1-4,6.5-8.4,6.5
			c-2.9,0-6-1-8.5-2.8L21,45.1z"/>
		<path class="st0" d="M56.5,40.8c0-5.9-4.1-10.8-9.9-10.8c-6.3,0-10.3,5.1-10.3,11c0,6.6,4.7,11,11,11c3.3,0,6.6-1.4,8.6-3.8
			L52.7,45c-1,1.1-2.9,2.4-5.3,2.4c-3,0-5.4-2-5.7-5h14.6C56.4,41.9,56.5,41.4,56.5,40.8z M42,38.3c0.3-1.9,2.2-3.7,4.5-3.7
			c2.3,0,4,1.8,4.2,3.7H42z"/>
		<polygon class="st0" points="85.4,43.3 91.1,30.4 97,30.4 87.3,51.6 83.4,51.6 73.7,30.4 79.6,30.4 		"/>
		<g>
			<path class="st0" d="M101.8,20.5c2,0,3.7,1.6,3.7,3.6c0,2-1.7,3.6-3.7,3.6c-2,0-3.7-1.6-3.7-3.6C98.1,22.1,99.7,20.5,101.8,20.5"
				/>
			<rect x="98.9" y="30.4" class="st0" width="5.6" height="21.1"/>
		</g>
		<path class="st0" d="M127.9,47.2c-2.5,3.3-5.6,4.8-9.6,4.8c-6.5,0-11.3-4.9-11.3-11c0-6.1,4.9-11,11.3-11c3.6,0,6.9,1.7,8.9,4.2
			l-4,3.5c-1.1-1.5-2.8-2.5-4.9-2.5c-3.3,0-5.7,2.6-5.7,5.8c0,3.3,2.4,5.8,5.8,5.8c2.3,0,4.1-1.4,5-2.8L127.9,47.2z"/>
		<path class="st0" d="M148.4,48.2c-2,2.4-5.4,3.8-8.6,3.8c-6.3,0-11-4.4-11-11c0-5.9,4-11,10.3-11c5.8,0,9.9,4.9,9.9,10.8
			c0,0.6,0,1.1-0.1,1.6h-14.6c0.3,3,2.7,5,5.7,5c2.4,0,4.3-1.4,5.3-2.4L148.4,48.2z M143.2,38.3c-0.2-1.9-1.9-3.7-4.2-3.7
			c-2.3,0-4.3,1.8-4.5,3.7H143.2z"/>
		<path class="st0" d="M151.2,51.6V30.4h5.4v1.7c1.6-1.3,3.6-2.1,6-2.1c2.9,0,5.6,1.3,7.3,3.4c1.4,1.7,2.2,3.8,2.2,7.4v10.8h-5.6
			V40.4c0-2.1-0.5-3.2-1.3-4c-0.7-0.7-1.9-1.2-3.2-1.2c-2.4,0-4.3,1.5-5.1,2.6v13.7H151.2z"/>
		<path class="st1" d="M186.6,30c-6.7,0-12.3,5.5-12.4,12.3c0,3.6,1.5,6.8,3.9,9.1c0.9,0.8,2.2,0.9,3.2,0.2c1.4-1.1,3.2-1.7,5.3-1.7
			c2.1,0,3.9,0.7,5.3,1.7c1,0.7,2.3,0.7,3.2-0.2c2.4-2.3,3.8-5.4,3.8-9C198.8,35.5,193.4,30,186.6,30 M186.5,48.5
			c-3.7,0-6.2-2.8-6.2-6.2c0-3.4,2.5-6.2,6.2-6.2c3.7,0,6.2,2.8,6.2,6.2C192.7,45.8,190.2,48.5,186.5,48.5"/>
		<g>
			<polygon class="st0" points="210,51.6 205.8,51.6 197.4,30.4 203.1,30.4 207.7,42.5 212.2,30.4 216.9,30.4 221.4,42.5 226,30.4 
				231.6,30.4 223.2,51.6 219,51.6 214.5,39.5 			"/>
		</g>
	</g>
	<g>
		<g>
			<path d="M231.7,49.2h-0.5v0.9h-0.4v-2.5h1c0.4,0,0.8,0.4,0.8,0.8c0,0.3-0.2,0.6-0.5,0.7l0.6,1h-0.4L231.7,49.2z M231.2,48.8h0.6
				c0.2,0,0.4-0.2,0.4-0.4c0-0.2-0.2-0.4-0.4-0.4h-0.6V48.8z"/>
		</g>
		<path d="M231.6,46.6c1.3,0,2.3,1,2.3,2.3s-1,2.3-2.3,2.3c-1.3,0-2.3-1-2.3-2.3S230.4,46.6,231.6,46.6 M231.6,46.3
			c-1.5,0-2.6,1.2-2.6,2.6c0,1.5,1.2,2.6,2.6,2.6c1.5,0,2.6-1.2,2.6-2.6C234.3,47.4,233.1,46.3,231.6,46.3L231.6,46.3z"/>
	</g>
</g>
</svg>
