<?xml version="1.0" encoding="UTF-8" standalone="no"?><!DOCTYPE svg PUBLIC "-//W3C//DTD SVG 1.1//EN" "http://www.w3.org/Graphics/SVG/1.1/DTD/svg11.dtd"><svg width="100%" height="100%" viewBox="0 0 1163 1200" version="1.1" xmlns="http://www.w3.org/2000/svg" xmlns:xlink="http://www.w3.org/1999/xlink" xml:space="preserve" xmlns:serif="http://www.serif.com/" style="fill-rule:evenodd;clip-rule:evenodd;stroke-miterlimit:2;"><clipPath id="_clip1"><path d="M1308.11,6.812l-1540.97,-0.806l-41.871,658.934l-0.202,389.604l1669.05,0.874l66.018,-1038.95l-152.022,-9.66Z"/></clipPath><g clip-path="url(#_clip1)"><path d="M889.811,502.783c6.992,1.075 14.158,1.639 21.451,1.647c78.188,0.042 141.597,-63.853 141.635,-142.709c0.014,-22.557 -5.157,-43.874 -14.381,-62.839c-5.889,-70.665 -54.347,-129.106 -119.423,-149.165c-25.948,-30.624 -64.51,-50.054 -107.578,-50.077c-15.327,-0.005 -30.083,2.456 -43.92,6.992c-28.522,-16.121 -61.412,-25.338 -96.44,-25.355c-37.612,-0.022 -72.769,10.544 -102.715,28.907c-11.802,-1.923 -23.886,-2.945 -36.215,-2.952c-86.459,-0.042 -161.577,48.897 -199.608,120.818c-33.919,15.054 -57.685,49.07 -58.124,88.743c-47.62,30.913 -79.17,84.825 -79.202,146.175c-0.041,81.182 55.098,149.378 129.677,168.53c6.235,60.17 56.661,107.096 117.983,107.131c12.696,0.005 24.92,-2.012 36.399,-5.729c19.347,-2.031 44.002,-8.23 50.741,8.005c12.045,28.972 -22.503,75.873 -26.525,121.698c-0.68,7.8 18.667,6.297 23.295,0.017c45.06,-61.21 58.053,-150.166 119.714,-194.257c27.625,-19.747 34.272,-42.813 31.593,-63.6c20.999,12.444 45.449,19.597 71.559,19.611c71.07,0.036 129.919,-52.755 140.084,-121.591Z" style="fill:#fff;"/></g><clipPath id="_clip2"><path d="M671.155,81.273c-37.611,-0.023 -72.769,10.544 -102.718,28.903c-11.798,-1.919 -23.883,-2.937 -36.212,-2.944c-86.458,-0.046 -161.577,48.889 -199.607,120.814c-33.914,15.055 -57.693,49.078 -58.124,88.738c-47.621,30.914 -79.165,84.826 -79.197,146.185c-0.047,81.177 55.086,149.377 129.671,168.529c6.235,60.17 56.661,107.088 117.975,107.126c12.705,0.006 24.919,-1.999 36.399,-5.732c19.355,-2.023 44.01,-8.222 50.749,8.009c12.046,28.964 -22.503,75.877 -26.525,121.702c-0.68,7.8 18.667,6.297 23.296,0.011c45.06,-61.21 58.052,-150.165 119.713,-194.251c27.625,-19.747 34.268,-42.813 31.593,-63.604c20.999,12.444 45.449,19.592 71.559,19.607c71.07,0.036 129.919,-52.747 140.084,-121.583c6.992,1.071 14.158,1.639 21.452,1.643c78.187,0.046 141.605,-63.852 141.643,-142.713c0.013,-22.549 -5.166,-43.87 -14.39,-62.839c-5.889,-70.657 -54.347,-129.098 -119.423,-149.157c-25.947,-30.628 -64.509,-50.058 -107.578,-50.081c-15.327,-0.001 -30.083,2.451 -43.915,6.988c-25.105,-14.184 -53.593,-23.025 -83.941,-24.953c-4.133,-0.263 -8.304,-0.394 -12.504,-0.398Z"/></clipPath><g clip-path="url(#_clip2)"><path d="M893.826,502.412c7.025,1.073 14.225,1.639 21.552,1.637c78.576,0.046 142.3,-63.621 142.345,-142.189c0.004,-22.469 -5.188,-43.712 -14.459,-62.605c-5.918,-70.404 -54.615,-128.635 -120.016,-148.622c-26.068,-30.511 -64.831,-49.87 -108.113,-49.886c-15.405,-0.014 -30.232,2.442 -44.13,6.961c-28.668,-16.067 -61.723,-25.248 -96.931,-25.26c-37.787,-0.021 -73.126,10.509 -103.217,28.8c-11.856,-1.927 -24.004,-2.932 -36.4,-2.939c-86.884,-0.043 -162.379,48.713 -200.593,120.367c-34.086,15.002 -57.978,48.897 -58.413,88.424c-47.849,30.79 -79.557,84.504 -79.593,145.641c-0.04,80.882 55.369,148.836 130.323,167.911c6.267,59.956 56.941,106.705 118.56,106.742c12.763,0.005 25.044,-1.999 36.578,-5.705c19.45,-2.02 44.234,-8.203 51.009,7.968c12.09,28.862 -22.614,75.598 -26.66,121.264c-0.694,7.763 18.757,6.273 23.409,0.013c45.279,-60.982 58.339,-149.62 120.303,-193.541c27.758,-19.684 34.446,-42.668 31.758,-63.376c21.093,12.404 45.666,19.522 71.914,19.541c71.416,0.033 130.562,-52.559 140.774,-121.146Z" style="fill:#fff;"/></g><g><clipPath id="_clip3"><path d="M674.071,82.439c-37.788,-0.013 -73.127,10.518 -103.214,28.809c-11.857,-1.918 -24.005,-2.928 -36.408,-2.94c-86.876,-0.042 -162.371,48.714 -200.585,120.372c-34.086,15.002 -57.984,48.893 -58.419,88.419c-47.85,30.799 -79.557,84.505 -79.587,145.642c-0.046,80.881 55.363,148.836 130.316,167.911c6.268,59.951 56.941,106.713 118.567,106.75c12.763,0.001 25.053,-2.007 36.577,-5.708c19.447,-2.03 44.231,-8.208 51.002,7.971c12.098,28.854 -22.619,75.59 -26.652,121.256c-0.598,6.652 13.598,6.51 20.598,2.396c0.215,-0.229 0.417,-0.459 0.596,-0.703c45.06,-61.21 58.052,-150.165 119.713,-194.251c27.625,-19.747 34.268,-42.813 31.593,-63.604c1.071,0.632 2.163,1.252 3.247,1.864c-0.078,-0.874 -0.173,-1.744 -0.285,-2.607c21.102,12.397 45.674,19.523 71.913,19.542c10.333,0.005 20.411,-1.096 30.117,-3.18c55.435,-13.504 98.131,-59.919 106.651,-117.595c1.286,0.191 2.577,0.377 3.87,0.539c0.043,-0.294 0.092,-0.608 0.137,-0.91c7.033,1.073 14.229,1.635 21.556,1.637c3.636,0.005 7.252,-0.132 10.826,-0.398c71.164,-7.49 126.665,-68.167 126.706,-141.938c0.013,-22.549 -5.166,-43.87 -14.39,-62.839c-5.889,-70.657 -54.347,-129.098 -119.423,-149.157c-17.457,-20.619 -40.643,-36.158 -67.07,-44.121c-11.765,-3.157 -24.129,-4.848 -36.891,-4.858c-15.402,-0.001 -30.238,2.45 -44.135,6.97c-0.827,-0.458 -1.654,-0.919 -2.489,-1.373c-0.299,0.102 -0.602,0.199 -0.908,0.289c-9.52,-5.378 -19.535,-9.993 -29.955,-13.753c-16.136,-5.455 -33.198,-8.902 -50.904,-10.027c-4.187,-0.266 -8.412,-0.401 -12.67,-0.405Z"/></clipPath><g clip-path="url(#_clip3)"><path d="M183.008,-90.128l17.375,0.008l-0.473,991.4l-17.374,-0.008l0.472,-991.4Z" style="fill:#a4cbe9;"/><path d="M200.223,-90.12l17.373,0.009l-0.471,991.399l-17.372,-0.008l0.47,-991.4Z" style="fill:#a4cbe9;"/><path d="M234.341,901.295l-17.319,-0.002l0.417,-991.4l17.324,0.011l-0.422,991.391Z" style="fill:#a4cbe9;"/><path d="M234.666,-90.098l17.344,0.008l-0.448,991.399l-17.344,-0.008l0.448,-991.399Z" style="fill:#a4cbe9;"/><path d="M251.875,-90.09l17.346,0.008l-0.45,991.398l-17.346,-0.008l0.45,-991.398Z" style="fill:#a4cbe9;"/><path d="M269.09,-90.081l17.375,0.008l-0.472,991.396l-17.375,-0.008l0.472,-991.396Z" style="fill:#a4cbe9;"/><path d="M286.305,-90.069l17.375,0.008l-0.472,991.398l-17.375,-0.008l0.472,-991.398Z" style="fill:#a4cbe9;"/><path d="M303.521,-90.065l17.352,0.008l-0.45,991.401l-17.352,-0.008l0.45,-991.401Z" style="fill:#a4cbe9;"/><path d="M320.717,-90.049l17.432,0.009l-0.493,991.392l-17.431,-0.008l0.492,-991.393Z" style="fill:#a4cbe9;"/><path d="M354.847,901.358l-17.319,-0.001l0.423,-991.401l17.319,0.011l-0.423,991.391Z" style="fill:#a4cbe9;"/><path d="M355.172,-90.035l17.345,0.008l-0.449,991.399l-17.344,-0.008l0.448,-991.399Z" style="fill:#a4cbe9;"/><path d="M372.388,-90.026l17.374,0.008l-0.472,991.398l-17.375,-0.009l0.473,-991.397Z" style="fill:#a4cbe9;"/><path d="M389.603,-90.018l17.358,0.008l-0.454,991.397l-17.359,-0.008l0.455,-991.397Z" style="fill:#a4cbe9;"/><path d="M406.8,-90.007l17.087,0.003l-0.15,991.399l-17.088,-0.002l0.151,-991.4Z" style="fill:#a4cbe9;"/><path d="M424.033,-89.997l17.343,0.008l-0.447,991.396l-17.343,-0.008l0.447,-991.396Z" style="fill:#a4cbe9;"/><path d="M441.255,-89.993l17.342,0.008l-0.447,991.4l-17.342,-0.008l0.447,-991.4Z" style="fill:#a4cbe9;"/><path d="M458.442,-89.982l17.441,0.009l-0.507,991.396l-17.441,-0.009l0.507,-991.396Z" style="fill:#a4cbe9;"/><path d="M475.68,-89.972l17.378,0.008l-0.477,991.4l-17.378,-0.009l0.477,-991.399Z" style="fill:#a4cbe9;"/><path d="M492.893,-89.964l17.348,0.008l-0.447,991.399l-17.348,-0.008l0.447,-991.399Z" style="fill:#a4cbe9;"/><path d="M510.115,-89.955l17.344,0.008l-0.447,991.398l-17.344,-0.008l0.447,-991.398Z" style="fill:#a4cbe9;"/><path d="M527.332,-89.942l17.316,0.007l-0.423,991.398l-17.316,-0.007l0.423,-991.398Z" style="fill:#a4cbe9;"/><path d="M544.528,-89.935l17.461,0.009l-0.522,991.399l-17.46,-0.01l0.521,-991.398Z" style="fill:#a4cbe9;"/><path d="M561.75,-89.93l17.367,0.008l-0.461,991.4l-17.368,-0.008l0.462,-991.4Z" style="fill:#a4cbe9;"/><path d="M578.976,-89.913l17.324,0.007l-0.423,991.392l-17.324,-0.008l0.423,-991.391Z" style="fill:#a4cbe9;"/><path d="M596.173,-89.91l17.112,0.003l-0.174,991.401l-17.112,-0.003l0.174,-991.401Z" style="fill:#a4cbe9;"/><path d="M613.407,-89.9l17.343,0.008l-0.446,991.398l-17.344,-0.008l0.447,-991.398Z" style="fill:#a4cbe9;"/><path d="M630.62,-89.892l17.344,0.008l-0.447,991.397l-17.344,-0.007l0.447,-991.398Z" style="fill:#a4cbe9;"/><path d="M647.837,-89.879l17.363,0.008l-0.462,991.398l-17.363,-0.008l0.462,-991.398Z" style="fill:#a4cbe9;"/><path d="M665.05,-89.871l17.368,0.008l-0.462,991.398l-17.368,-0.008l0.462,-991.398Z" style="fill:#a4cbe9;"/><path d="M682.255,-89.859l17.461,0.009l-0.522,991.393l-17.461,-0.009l0.522,-991.393Z" style="fill:#a4cbe9;"/><path d="M716.387,901.549l-17.323,-0.002l0.425,-991.397l17.318,0.007l-0.42,991.392Z" style="fill:#a4cbe9;"/><path d="M716.703,-89.845l17.343,0.007l-0.446,991.4l-17.344,-0.007l0.447,-991.4Z" style="fill:#a4cbe9;"/><path d="M733.895,-89.838l17.437,0.008l-0.498,991.401l-17.437,-0.009l0.498,-991.4Z" style="fill:#a4cbe9;"/><path d="M751.129,-89.825l17.378,0.009l-0.477,991.393l-17.378,-0.008l0.477,-991.394Z" style="fill:#a4cbe9;"/><path d="M768.351,-89.816l17.348,0.008l-0.447,991.399l-17.348,-0.008l0.447,-991.399Z" style="fill:#a4cbe9;"/><path d="M785.564,-89.808l17.324,0.008l-0.423,991.398l-17.324,-0.007l0.423,-991.399Z" style="fill:#a4cbe9;"/><path d="M802.786,-89.799l17.343,0.008l-0.446,991.397l-17.344,-0.008l0.447,-991.397Z" style="fill:#a4cbe9;"/><path d="M820.003,-89.786l17.34,0.008l-0.447,991.391l-17.34,-0.008l0.447,-991.391Z" style="fill:#a4cbe9;"/><path d="M837.212,-89.782l17.378,0.008l-0.477,991.4l-17.378,-0.008l0.477,-991.4Z" style="fill:#a4cbe9;"/><path d="M854.434,-89.774l17.348,0.008l-0.447,991.4l-17.348,-0.008l0.447,-991.4Z" style="fill:#a4cbe9;"/><path d="M871.63,-89.762l17.461,0.009l-0.522,991.395l-17.461,-0.009l0.522,-991.395Z" style="fill:#a4cbe9;"/><path d="M888.86,-89.753l17.344,0.008l-0.447,991.399l-17.344,-0.008l0.447,-991.399Z" style="fill:#a4cbe9;"/><path d="M906.077,-89.744l17.344,0.008l-0.447,991.397l-17.343,-0.007l0.446,-991.398Z" style="fill:#a4cbe9;"/><path d="M923.291,-89.736l17.382,0.008l-0.477,991.397l-17.382,-0.008l0.477,-991.397Z" style="fill:#a4cbe9;"/><path d="M957.41,901.676l-17.327,-0.002l0.425,-991.397l17.318,0.006l-0.416,991.393Z" style="fill:#a4cbe9;"/><path d="M957.721,-89.715l17.368,0.008l-0.462,991.397l-17.368,-0.008l0.462,-991.397Z" style="fill:#a4cbe9;"/><path d="M974.943,-89.71l17.344,0.007l-0.447,991.4l-17.344,-0.008l0.447,-991.399Z" style="fill:#a4cbe9;"/><path d="M992.161,-89.702l17.335,0.008l-0.438,991.398l-17.336,-0.007l0.439,-991.399Z" style="fill:#a4cbe9;"/><path d="M1009.37,-89.689l17.363,0.008l-0.462,991.399l-17.363,-0.008l0.462,-991.399Z" style="fill:#a4cbe9;"/><path d="M1026.59,-89.681l17.378,0.008l-0.477,991.398l-17.378,-0.008l0.477,-991.398Z" style="fill:#a4cbe9;"/><path d="M1043.8,-89.673l17.348,0.008l-0.447,991.397l-17.348,-0.008l0.447,-991.397Z" style="fill:#a4cbe9;"/><path d="M166.242,-90.137l895.477,0.47l-0.521,991.4l-895.476,-0.47l0.52,-991.4Z" style="fill:#6cb4e0;"/></g></g><g><clipPath id="_clip4"><path d="M671.155,81.273c-37.611,-0.023 -72.769,10.544 -102.718,28.903c-11.798,-1.919 -23.883,-2.937 -36.212,-2.944c-86.458,-0.046 -161.577,48.889 -199.607,120.814c-33.914,15.055 -57.693,49.078 -58.124,88.738c-47.621,30.914 -79.165,84.826 -79.197,146.185c-0.047,81.177 55.086,149.377 129.671,168.529c6.235,60.17 56.661,107.088 117.975,107.126c12.705,0.006 24.919,-1.999 36.399,-5.732c19.355,-2.023 44.01,-8.222 50.749,8.009c12.046,28.964 -22.503,75.877 -26.525,121.702c-0.68,7.8 18.667,6.297 23.296,0.011c45.06,-61.21 58.052,-150.165 119.713,-194.251c27.625,-19.747 34.268,-42.813 31.593,-63.604c20.999,12.444 45.449,19.592 71.559,19.607c71.07,0.036 129.919,-52.747 140.084,-121.583c6.992,1.071 14.158,1.639 21.452,1.643c78.187,0.046 141.605,-63.852 141.643,-142.713c0.013,-22.549 -5.166,-43.87 -14.39,-62.839c-5.889,-70.657 -54.347,-129.098 -119.423,-149.157c-25.947,-30.628 -64.509,-50.058 -107.578,-50.081c-15.327,-0.001 -30.083,2.451 -43.915,6.988c-25.105,-14.184 -53.593,-23.025 -83.941,-24.953c-4.133,-0.263 -8.304,-0.394 -12.504,-0.398Z"/></clipPath><g clip-path="url(#_clip4)"><path d="M193.89,316.982l870.582,0.463l-0.097,182.453l-870.582,-0.464l0.097,-182.452Z" style="fill:#fff;"/><path d="M527.082,554.347c-1.543,-4.24 -0.816,-9.241 2.178,-12.733c2.789,-3.48 7.66,-5.292 12.05,-4.478c4.541,0.685 8.355,3.996 9.97,8.211c1.531,4.235 0.812,9.241 -2.178,12.725c-2.792,3.48 -7.667,5.295 -12.054,4.482c-4.545,-0.681 -8.367,-3.997 -9.966,-8.207Zm-20.434,27.025c2.652,2.678 5.571,5.097 8.792,7.043c4.751,-2.959 8.873,-6.455 12.324,-10.498c2.031,0.889 4.188,1.435 6.359,1.819c2.18,0.394 4.4,0.476 6.617,0.417c2.221,4.85 5.404,9.491 9.488,13.629c3.619,-0.973 7.158,-2.272 10.451,-4.087c-0.136,-5.545 -1.169,-10.98 -2.873,-15.894c1.713,-1.402 3.345,-2.91 4.737,-4.634c1.39,-1.715 2.667,-3.542 3.628,-5.531c5.357,0.529 10.967,0.084 16.55,-1.365c1.076,-3.606 1.604,-7.372 1.743,-11.137c-4.921,-2.651 -10.067,-4.464 -15.244,-5.445c-0.299,-2.19 -0.877,-4.335 -1.6,-6.426c-0.817,-2.056 -1.78,-4.051 -2.981,-5.906c3.112,-4.361 5.534,-9.434 7.071,-15.036c-2.652,-2.677 -5.57,-5.105 -8.791,-7.042c-4.752,2.955 -8.873,6.45 -12.32,10.494c-2.035,-0.889 -4.193,-1.431 -6.364,-1.82c-2.183,-0.397 -4.399,-0.48 -6.612,-0.412c-2.226,-4.851 -5.413,-9.491 -9.493,-13.629c-3.618,0.964 -7.153,2.263 -10.459,4.087c0.149,5.545 1.181,10.976 2.881,15.893c-1.713,1.399 -3.353,2.906 -4.74,4.63c-1.391,1.711 -2.659,3.543 -3.625,5.535c-5.357,-0.528 -10.962,-0.091 -16.549,1.358c-1.073,3.61 -1.604,7.371 -1.739,11.137c4.912,2.659 10.066,4.472 15.24,5.444c0.299,2.198 0.873,4.335 1.604,6.427c0.813,2.056 1.775,4.058 2.972,5.913c-3.103,4.358 -5.526,9.435 -7.067,15.036Z" style="fill:#fff;fill-rule:nonzero;"/><path d="M854.5,244.67c0.008,-19.639 15.935,-35.531 35.57,-35.528c19.627,0.007 35.545,15.936 35.529,35.566c-0.008,19.64 -15.932,35.545 -35.567,35.533c-19.634,-0.012 -35.54,-15.931 -35.532,-35.571Zm-38.225,6.272c-5.7,2.774 -11.296,6.084 -16.783,9.919c0.666,3.449 1.623,6.85 2.556,10.228c6.53,0.398 12.934,0.342 19.174,-0.155c0.849,2.333 2.077,4.491 3.1,6.735c1.116,2.209 2.514,4.251 3.765,6.389c-3.818,5.156 -7.156,10.643 -10.241,16.609c2.176,2.752 4.616,5.283 7.004,7.843c5.958,-2.69 11.599,-5.721 16.9,-9.046c1.836,1.649 3.916,3.013 5.87,4.527c2.019,1.41 4.193,2.609 6.285,3.915c-0.977,6.317 -1.407,12.749 -1.357,19.461c3.204,1.415 6.551,2.546 9.863,3.708c4.04,-5.158 7.625,-10.466 10.759,-15.883c2.393,0.645 4.878,0.828 7.309,1.262c2.438,0.397 4.927,0.326 7.387,0.515c2.073,6.203 4.686,11.93 7.825,17.853c3.506,-0.048 6.965,-0.805 10.444,-1.29c1.218,-6.218 1.892,-12.81 2.162,-19.043c2.426,-0.526 4.74,-1.402 7.054,-2.265c2.357,-0.761 4.563,-1.902 6.79,-2.976c4.723,4.521 9.745,8.469 15.258,12.176c3.067,-1.734 5.823,-3.914 8.633,-6.019c-1.823,-6.065 -4.285,-12.196 -6.961,-17.852c1.897,-1.6 3.538,-3.441 5.191,-5.282c1.745,-1.768 3.148,-3.812 4.643,-5.78c6.276,1.819 12.536,2.976 19.156,3.719c1.924,-2.943 3.332,-6.181 4.869,-9.336c-4.426,-4.531 -9.467,-8.834 -14.451,-12.6c0.943,-2.29 1.53,-4.695 2.133,-7.095c0.715,-2.376 1.034,-4.832 1.402,-7.272c6.389,-1.327 12.554,-3.214 18.678,-5.635c0.285,-3.497 0.177,-6.995 -0.055,-10.5c-6.072,-1.947 -12.303,-3.437 -18.606,-4.443c-0.374,-2.445 -0.686,-4.907 -1.403,-7.278c-0.595,-2.397 -1.182,-4.789 -2.121,-7.095c4.919,-4.084 9.726,-8.713 13.937,-13.685c-1.471,-3.188 -3.05,-6.332 -4.971,-9.28c-6.344,1.137 -12.458,2.678 -18.53,4.739c-1.482,-1.969 -2.889,-4.013 -4.629,-5.789c-1.65,-1.842 -3.29,-3.691 -5.189,-5.281c2.473,-5.922 4.573,-12.227 6.016,-18.581c-2.773,-2.164 -5.642,-4.183 -8.7,-5.926c-5.089,3.931 -9.812,8.152 -14.227,12.786c-2.229,-1.065 -4.431,-2.215 -6.792,-2.979c-2.312,-0.861 -4.628,-1.743 -7.049,-2.268c-0.573,-6.353 -1.656,-12.969 -3.349,-19.243c-3.476,-0.559 -6.944,-1.101 -10.446,-1.181c-2.675,5.955 -4.878,11.71 -6.637,17.919c-2.455,0.191 -4.943,0.116 -7.385,0.508c-2.432,0.43 -4.919,0.61 -7.311,1.251c-3.433,-5.303 -7.442,-10.614 -11.894,-15.51c-3.278,1.261 -6.692,2.226 -9.817,3.835c0.392,6.509 1.18,12.771 2.436,18.947c-2.091,1.303 -4.267,2.497 -6.285,3.909c-1.962,1.508 -4.04,2.87 -5.878,4.52c-5.51,-3.102 -11.531,-5.923 -17.732,-8.196c-2.313,2.63 -4.881,5.051 -6.901,7.941c3.374,5.576 6.95,10.738 10.955,15.647c-1.255,2.129 -2.654,4.174 -3.775,6.382c-1.024,2.248 -2.255,4.404 -3.1,6.725c-6.326,-0.184 -12.966,0.103 -19.523,0.994c-0.826,3.412 -1.95,6.773 -2.414,10.263c5.573,3.368 11.225,6.279 16.964,8.731l-0.379,7.403l0.373,7.405Z" style="fill:#fff;fill-rule:nonzero;"/><path d="M415.964,638.75c0.008,-19.639 15.936,-35.536 35.571,-35.529c19.626,0.007 35.544,15.928 35.528,35.567c-0.008,19.635 -15.932,35.544 -35.566,35.532c-19.635,-0.016 -35.541,-15.931 -35.533,-35.57Zm-38.223,6.267c-5.701,2.778 -11.295,6.088 -16.784,9.923c0.667,3.449 1.622,6.85 2.555,10.228c6.531,0.394 12.933,0.342 19.174,-0.155c0.848,2.329 2.076,4.491 3.099,6.735c1.117,2.209 2.517,4.252 3.765,6.389c-3.819,5.156 -7.154,10.643 -10.24,16.609c2.174,2.752 4.617,5.283 7.004,7.844c5.957,-2.695 11.6,-5.722 16.898,-9.047c1.838,1.649 3.919,3.013 5.876,4.528c2.015,1.409 4.189,2.608 6.281,3.914c-0.977,6.317 -1.399,12.754 -1.357,19.457c3.204,1.419 6.552,2.55 9.864,3.712c4.039,-5.158 7.625,-10.466 10.758,-15.883c2.393,0.645 4.878,0.828 7.309,1.262c2.438,0.397 4.927,0.326 7.387,0.516c2.073,6.202 4.686,11.929 7.825,17.853c3.506,-0.049 6.965,-0.806 10.445,-1.291c1.217,-6.218 1.891,-12.81 2.162,-19.047c2.425,-0.522 4.74,-1.398 7.053,-2.261c2.362,-0.764 4.563,-1.902 6.79,-2.976c4.723,4.517 9.749,8.469 15.259,12.176c3.07,-1.734 5.822,-3.918 8.632,-6.019c-1.823,-6.065 -4.285,-12.196 -6.961,-17.852c1.897,-1.6 3.538,-3.441 5.191,-5.282c1.745,-1.772 3.144,-3.812 4.643,-5.78c6.268,1.818 12.54,2.977 19.157,3.719c1.923,-2.943 3.332,-6.181 4.868,-9.34c-4.426,-4.527 -9.467,-8.83 -14.451,-12.595c0.943,-2.291 1.526,-4.701 2.134,-7.096c0.714,-2.376 1.029,-4.832 1.401,-7.272c6.389,-1.326 12.554,-3.214 18.679,-5.639c0.284,-3.493 0.177,-6.999 -0.055,-10.5c-6.073,-1.943 -12.303,-3.433 -18.606,-4.439c-0.379,-2.445 -0.686,-4.907 -1.408,-7.278c-0.595,-2.406 -1.178,-4.797 -2.117,-7.099c4.919,-4.08 9.726,-8.709 13.937,-13.681c-1.471,-3.192 -3.05,-6.331 -4.971,-9.284c-6.348,1.141 -12.453,2.682 -18.53,4.743c-1.482,-1.969 -2.888,-4.012 -4.629,-5.789c-1.649,-1.842 -3.29,-3.691 -5.188,-5.281c2.472,-5.922 4.572,-12.227 6.015,-18.581c-2.772,-2.164 -5.642,-4.183 -8.7,-5.926c-5.089,3.931 -9.812,8.152 -14.227,12.782c-2.228,-1.065 -4.431,-2.211 -6.791,-2.975c-2.313,-0.86 -4.624,-1.742 -7.05,-2.268c-0.573,-6.357 -1.656,-12.968 -3.349,-19.243c-3.475,-0.563 -6.94,-1.104 -10.446,-1.181c-2.671,5.963 -4.877,11.71 -6.637,17.919c-2.455,0.191 -4.942,0.116 -7.385,0.508c-2.432,0.426 -4.919,0.61 -7.31,1.251c-3.434,-5.303 -7.442,-10.614 -11.895,-15.51c-3.278,1.261 -6.692,2.226 -9.817,3.835c0.394,6.509 1.18,12.771 2.437,18.943c-2.091,1.307 -4.266,2.497 -6.287,3.913c-1.959,1.508 -4.037,2.871 -5.878,4.52c-5.509,-3.102 -11.528,-5.927 -17.733,-8.196c-2.31,2.63 -4.88,5.051 -6.897,7.942c3.373,5.575 6.949,10.737 10.953,15.646c-1.253,2.13 -2.651,4.17 -3.775,6.382c-1.023,2.244 -2.253,4.404 -3.098,6.726c-6.326,-0.185 -12.967,0.103 -19.525,0.993c-0.824,3.413 -1.948,6.769 -2.413,10.263c5.571,3.364 11.226,6.279 16.964,8.731l-0.379,7.399l0.374,7.405Z" style="fill:#fff;fill-rule:nonzero;"/><path d="M695.876,231.339c-3.15,-4.902 -5.292,-10.415 -6.341,-16.181c-1.011,-5.771 -0.911,-11.685 0.353,-17.371c1.234,-5.687 3.617,-11.134 6.953,-15.928c3.344,-4.79 7.63,-8.914 12.535,-12.051c4.901,-3.141 10.415,-5.291 16.176,-6.332c5.768,-1.02 11.69,-0.911 17.376,0.331c5.682,1.255 11.134,3.635 15.924,6.966c4.793,3.348 8.909,7.626 12.046,12.535c3.146,4.901 5.296,10.411 6.341,16.176c1.015,5.776 0.91,11.694 -0.344,17.376c-1.242,5.687 -3.622,11.134 -6.962,15.936c-3.344,4.781 -7.63,8.905 -12.531,12.042c-4.901,3.142 -10.419,5.288 -16.176,6.337c-5.772,1.015 -11.689,0.907 -17.375,-0.348c-5.683,-1.238 -11.13,-3.626 -15.933,-6.962c-4.781,-3.335 -8.905,-7.622 -12.042,-12.526Zm-24.667,-7.997c-2.493,1.582 -4.977,3.291 -7.283,5.073c1.123,3.616 2.448,7.153 4.135,10.558c2.957,-0.275 5.828,-0.644 8.776,-1.183l2.44,4.184c0.865,1.362 1.861,2.644 2.796,3.96c-1.682,2.411 -3.334,4.953 -4.781,7.496c2.433,2.906 5.027,5.651 7.875,8.136c2.591,-1.359 5.141,-2.846 7.644,-4.466l3.838,2.945l4.099,2.578c-0.653,2.915 -1.171,5.817 -1.557,8.727c3.326,1.802 6.81,3.289 10.378,4.559c1.871,-2.244 3.682,-4.659 5.372,-7.078c1.556,0.421 3.103,0.903 4.68,1.258l4.773,0.838c0.514,2.951 1.161,5.781 1.931,8.644c3.769,0.402 7.551,0.421 11.333,0.227c0.875,-2.792 1.611,-5.713 2.241,-8.596l4.791,-0.618l4.72,-1.086c1.578,2.492 3.287,4.977 5.064,7.29c3.617,-1.127 7.162,-2.447 10.559,-4.143c-0.267,-2.948 -0.636,-5.819 -1.184,-8.768l4.193,-2.439c1.358,-0.878 2.636,-1.861 3.952,-2.797c2.419,1.678 4.961,3.326 7.5,4.773c2.909,-2.424 5.646,-5.023 8.148,-7.866c-1.371,-2.6 -2.863,-5.146 -4.482,-7.653l2.953,-3.829l2.578,-4.103c2.91,0.656 5.813,1.167 8.728,1.548c1.802,-3.322 3.287,-6.789 4.558,-10.365c-2.236,-1.871 -4.667,-3.691 -7.078,-5.372c0.425,-1.556 0.907,-3.103 1.249,-4.681l0.851,-4.776c2.946,-0.506 5.773,-1.165 8.631,-1.923c0.406,-3.77 0.422,-7.56 0.232,-11.338c-2.788,-0.874 -5.714,-1.611 -8.6,-2.245l-0.614,-4.79l-1.082,-4.716c2.493,-1.591 4.98,-3.287 7.286,-5.077c-1.127,-3.613 -2.447,-7.149 -4.139,-10.555c-2.948,0.268 -5.827,0.644 -8.771,1.179l-2.444,-4.18c-0.866,-1.357 -1.862,-2.644 -2.797,-3.952c1.686,-2.427 3.334,-4.961 4.781,-7.499c-2.433,-2.91 -5.027,-5.655 -7.87,-8.149c-2.596,1.368 -5.141,2.851 -7.649,4.474l-3.838,-2.949l-4.098,-2.582c0.652,-2.906 1.17,-5.808 1.556,-8.719c-3.325,-1.81 -6.801,-3.292 -10.373,-4.563c-1.875,2.236 -3.687,4.664 -5.377,7.082c-1.555,-0.424 -3.103,-0.907 -4.675,-1.257l-4.773,-0.842c-0.514,-2.947 -1.157,-5.773 -1.923,-8.64c-3.781,-0.411 -7.564,-0.418 -11.346,-0.224c-0.874,2.78 -1.611,5.701 -2.233,8.593l-4.799,0.617l-4.711,1.083c-1.583,-2.493 -3.291,-4.977 -5.077,-7.295c-3.612,1.132 -7.157,2.455 -10.555,4.143c0.276,2.953 0.636,5.827 1.184,8.772l-4.192,2.439c-1.355,0.879 -2.637,1.87 -3.953,2.801c-2.411,-1.677 -4.961,-3.33 -7.495,-4.772c-2.906,2.424 -5.651,5.018 -8.149,7.865c1.371,2.601 2.859,5.142 4.478,7.65l-2.949,3.833l-2.581,4.094c-2.907,-0.652 -5.809,-1.158 -8.728,-1.544c-1.802,3.326 -3.284,6.802 -4.554,10.362c2.235,1.878 4.662,3.699 7.081,5.38c-0.433,1.559 -0.915,3.107 -1.257,4.68l-0.842,4.773c-2.956,0.522 -5.777,1.161 -8.64,1.927c-0.403,3.782 -0.421,7.555 -0.228,11.337c2.784,0.874 5.709,1.616 8.596,2.242l0.618,4.798l1.079,4.712Z" style="fill:#fff;fill-rule:nonzero;"/><path d="M739.776,558.623c-3.57,-5.575 -6.019,-11.843 -7.206,-18.398c-1.157,-6.562 -1.038,-13.293 0.391,-19.757c1.409,-6.465 4.12,-12.664 7.911,-18.114c3.807,-5.448 8.681,-10.132 14.256,-13.702c5.575,-3.571 11.843,-6.016 18.394,-7.207c6.565,-1.148 13.288,-1.03 19.761,0.387c6.461,1.417 12.655,4.132 18.109,7.919c5.454,3.799 10.137,8.677 13.703,14.252c3.574,5.579 6.019,11.847 7.211,18.394c1.148,6.569 1.03,13.292 -0.396,19.761c-1.413,6.465 -4.124,12.659 -7.91,18.114c-3.807,5.444 -8.677,10.136 -14.252,13.698c-5.58,3.579 -11.843,6.024 -18.403,7.21c-6.561,1.153 -13.288,1.035 -19.752,-0.386c-6.465,-1.413 -12.66,-4.128 -18.114,-7.915c-5.449,-3.807 -10.133,-8.677 -13.703,-14.256Zm-28.046,-9.097c-2.837,1.803 -5.661,3.744 -8.283,5.774c1.28,4.106 2.782,8.134 4.699,12.001c3.36,-0.312 6.625,-0.723 9.98,-1.345l2.77,4.769c0.996,1.537 2.122,2.999 3.184,4.494c-1.907,2.747 -3.786,5.638 -5.427,8.523c2.759,3.307 5.705,6.421 8.943,9.265c2.959,-1.553 5.851,-3.244 8.699,-5.092l4.371,3.355l4.645,2.93c-0.737,3.31 -1.323,6.613 -1.755,9.929c3.783,2.044 7.729,3.735 11.792,5.175c2.132,-2.536 4.194,-5.295 6.114,-8.041c1.765,0.48 3.521,1.026 5.32,1.424l5.429,0.959c0.581,3.351 1.32,6.567 2.186,9.825c4.292,0.46 8.595,0.475 12.897,0.26c0.99,-3.169 1.832,-6.497 2.546,-9.775l5.447,-0.71l5.364,-1.225c1.803,2.836 3.744,5.661 5.769,8.291c4.111,-1.288 8.135,-2.786 12.002,-4.707c-0.304,-3.359 -0.727,-6.63 -1.346,-9.968l4.766,-2.783c1.545,-0.995 3.003,-2.122 4.502,-3.187c2.743,1.911 5.634,3.79 8.515,5.434c3.315,-2.762 6.429,-5.708 9.269,-8.943c-1.549,-2.962 -3.24,-5.854 -5.088,-8.706l3.35,-4.355l2.935,-4.665c3.314,0.745 6.613,1.326 9.925,1.766c2.048,-3.786 3.739,-7.732 5.187,-11.786c-2.549,-2.141 -5.307,-4.208 -8.049,-6.123c0.475,-1.765 1.025,-3.521 1.423,-5.316l0.951,-5.43c3.36,-0.588 6.576,-1.323 9.829,-2.189c0.465,-4.296 0.48,-8.596 0.26,-12.897c-3.172,-0.991 -6.492,-1.833 -9.775,-2.546l-0.705,-5.452l-1.23,-5.359c2.833,-1.808 5.658,-3.745 8.288,-5.778c-1.28,-4.106 -2.778,-8.134 -4.707,-12.002c-3.352,0.317 -6.618,0.732 -9.968,1.346l-2.779,-4.761c-0.991,-1.541 -2.122,-3.003 -3.183,-4.499c1.911,-2.742 3.781,-5.634 5.43,-8.522c-2.758,-3.307 -5.704,-6.421 -8.943,-9.261c-2.959,1.553 -5.859,3.243 -8.698,5.083l-4.367,-3.354l-4.657,-2.93c0.745,-3.31 1.33,-6.613 1.766,-9.921c-3.786,-2.048 -7.733,-3.739 -11.795,-5.183c-2.132,2.545 -4.195,5.303 -6.114,8.045c-1.774,-0.476 -3.526,-1.026 -5.325,-1.424l-5.421,-0.958c-0.584,-3.352 -1.315,-6.568 -2.198,-9.822c-4.284,-0.46 -8.587,-0.479 -12.893,-0.26c-0.99,3.173 -1.828,6.493 -2.541,9.775l-5.452,0.702l-5.359,1.225c-1.808,-2.829 -3.745,-5.657 -5.774,-8.283c-4.106,1.284 -8.139,2.781 -12.006,4.703c0.309,3.359 0.736,6.626 1.345,9.98l-4.756,2.775c-1.545,0.987 -3.007,2.122 -4.503,3.179c-2.751,-1.912 -5.633,-3.786 -8.523,-5.426c-3.306,2.758 -6.42,5.704 -9.269,8.946c1.562,2.951 3.252,5.848 5.096,8.695l-3.358,4.359l-2.935,4.664c-3.305,-0.744 -6.604,-1.325 -9.921,-1.761c-2.043,3.782 -3.735,7.728 -5.174,11.787c2.54,2.136 5.298,4.199 8.041,6.114c-0.484,1.773 -1.03,3.529 -1.424,5.324l-0.959,5.43c-3.356,0.58 -6.568,1.323 -9.829,2.185c-0.461,4.292 -0.471,8.596 -0.252,12.897c3.165,0.995 6.493,1.833 9.776,2.542l0.701,5.456l1.229,5.359Z" style="fill:#fff;fill-rule:nonzero;"/><path d="M598.965,575.953c-2.433,-5.87 -3.683,-12.216 -3.691,-18.596c0.018,-6.387 1.268,-12.733 3.712,-18.602c2.432,-5.875 6.048,-11.264 10.539,-15.776c4.519,-4.494 9.912,-8.096 15.79,-10.524c5.866,-2.429 12.217,-3.683 18.597,-3.691c6.387,0.018 12.724,1.276 18.598,3.712c5.87,2.431 11.269,6.039 15.772,10.538c4.493,4.519 8.1,9.913 10.523,15.791c2.442,5.867 3.683,12.216 3.695,18.597c-0.017,6.386 -1.272,12.728 -3.708,18.602c-2.435,5.874 -6.043,11.264 -10.55,15.767c-4.503,4.498 -9.9,8.101 -15.779,10.529c-5.878,2.436 -12.216,3.678 -18.604,3.69c-6.379,-0.017 -12.729,-1.268 -18.594,-3.712c-5.874,-2.431 -11.265,-6.039 -15.776,-10.546c-4.49,-4.503 -8.096,-9.9 -10.524,-15.779Zm-10.428,-12.908c-2.082,0.837 -4.147,1.737 -6.214,2.716c0.323,2.479 0.754,4.953 1.458,7.357c2.288,0.125 4.557,0.164 6.805,0.136c0.531,1.829 1.275,3.588 1.904,5.386c0.745,1.746 1.626,3.439 2.44,5.161c-1.62,1.567 -3.18,3.196 -4.72,4.889c1.256,2.18 2.618,4.271 4.18,6.24c2.157,-0.773 4.26,-1.603 6.328,-2.486c1.223,1.455 2.542,2.833 3.809,4.25c1.418,1.271 2.796,2.59 4.25,3.814c-0.89,2.06 -1.718,4.175 -2.493,6.326c1.958,1.569 4.064,2.926 6.238,4.187c1.693,-1.537 3.32,-3.091 4.892,-4.707c1.723,0.806 3.416,1.69 5.155,2.444c1.797,0.632 3.558,1.374 5.386,1.904c-0.034,2.248 0.009,4.522 0.123,6.804c2.41,0.709 4.88,1.133 7.364,1.47c0.982,-2.062 1.886,-4.134 2.708,-6.22l5.709,0.296l5.705,-0.293c0.828,2.086 1.727,4.16 2.698,6.226c2.489,-0.335 4.962,-0.754 7.374,-1.461c0.112,-2.285 0.156,-4.557 0.133,-6.809c1.824,-0.523 3.579,-1.267 5.38,-1.892c1.748,-0.757 3.44,-1.635 5.161,-2.44c1.572,1.615 3.197,3.176 4.891,4.711c2.176,-1.26 4.278,-2.617 6.24,-4.183c-0.774,-2.149 -1.604,-4.265 -2.487,-6.325c1.455,-1.223 2.833,-2.538 4.25,-3.809c1.271,-1.418 2.591,-2.795 3.814,-4.25c2.069,0.891 4.175,1.723 6.326,2.498c1.569,-1.971 2.934,-4.055 4.183,-6.235c-1.533,-1.696 -3.088,-3.323 -4.704,-4.895c0.807,-1.724 1.691,-3.413 2.454,-5.164c0.623,-1.793 1.365,-3.553 1.899,-5.377c2.244,0.025 4.513,-0.01 6.801,-0.128c0.708,-2.406 1.132,-4.879 1.465,-7.359c-2.058,-0.983 -4.131,-1.883 -6.215,-2.721l0.291,-5.701l-0.28,-5.704c2.077,-0.828 4.151,-1.728 6.217,-2.703c-0.334,-2.489 -0.754,-4.958 -1.465,-7.37c-2.285,-0.108 -4.545,-0.155 -6.801,-0.128c-0.527,-1.824 -1.267,-3.591 -1.892,-5.385c-0.757,-1.743 -1.639,-3.436 -2.444,-5.161c1.616,-1.576 3.176,-3.192 4.711,-4.886c-1.252,-2.18 -2.617,-4.283 -4.183,-6.24c-2.149,0.761 -4.26,1.595 -6.316,2.475c-1.231,-1.448 -2.547,-2.825 -3.822,-4.247c-1.414,-1.263 -2.791,-2.586 -4.245,-3.814c0.882,-2.065 1.722,-4.17 2.497,-6.321c-1.967,-1.57 -4.06,-2.93 -6.235,-4.183c-1.696,1.525 -3.323,3.083 -4.896,4.707c-1.726,-0.819 -3.42,-1.695 -5.163,-2.449c-1.797,-0.632 -3.554,-1.37 -5.378,-1.903c0.027,-2.253 -0.009,-4.518 -0.119,-6.8c-2.413,-0.713 -4.887,-1.142 -7.379,-1.471c-0.97,2.055 -1.875,4.131 -2.704,6.216l-5.706,-0.292l-5.705,0.289c-0.819,-2.09 -1.726,-4.168 -2.694,-6.221c-2.492,0.33 -4.966,0.753 -7.378,1.464c-0.116,2.281 -0.156,4.55 -0.128,6.798c-1.824,0.531 -3.591,1.27 -5.385,1.895c-1.743,0.754 -3.435,1.636 -5.157,2.449c-1.571,-1.624 -3.196,-3.184 -4.89,-4.716c-2.175,1.253 -4.278,2.609 -6.24,4.176c0.769,2.157 1.592,4.259 2.483,6.328c-1.451,1.223 -2.834,2.542 -4.254,3.809c-1.264,1.418 -2.583,2.792 -3.81,4.242c-2.069,-0.883 -4.171,-1.714 -6.326,-2.485c-1.561,1.954 -2.93,4.059 -4.183,6.23c1.529,1.7 3.091,3.324 4.703,4.896c-0.807,1.727 -1.691,3.42 -2.441,5.164c-0.631,1.792 -1.373,3.553 -1.907,5.377c-2.252,-0.03 -4.518,0.018 -6.801,0.127c-0.712,2.41 -1.141,4.879 -1.47,7.368c2.067,0.975 4.135,1.874 6.212,2.703l-0.288,5.71l0.281,5.696Z" style="fill:#fff;fill-rule:nonzero;"/><path d="M973.292,354.938c-2.967,-6.138 -4.699,-12.84 -5.108,-19.672c-0.38,-6.833 0.573,-13.695 2.815,-20.128c2.238,-6.438 5.763,-12.435 10.299,-17.533c4.545,-5.092 10.093,-9.287 16.226,-12.249c6.138,-2.963 12.853,-4.695 19.68,-5.1c6.83,-0.384 13.696,0.565 20.125,2.811c6.433,2.242 12.431,5.758 17.528,10.303c5.089,4.54 9.291,10.089 12.245,16.226c2.971,6.134 4.699,12.849 5.105,19.672c0.384,6.833 -0.566,13.7 -2.808,20.133c-2.241,6.433 -5.77,12.426 -10.299,17.528c-4.544,5.093 -10.096,9.282 -16.23,12.245c-6.138,2.967 -12.849,4.699 -19.68,5.108c-6.825,0.377 -13.691,-0.569 -20.128,-2.819c-6.426,-2.229 -12.422,-5.762 -17.528,-10.299c-5.093,-4.541 -9.275,-10.088 -12.242,-16.226Zm-11.956,-13.164c-2.177,1.023 -4.334,2.117 -6.484,3.287c0.505,2.642 1.115,5.253 2.023,7.794c2.452,-0.019 4.875,-0.116 7.282,-0.284c0.68,1.922 1.586,3.762 2.364,5.644c0.915,1.82 1.956,3.577 2.936,5.364c-1.637,1.779 -3.203,3.629 -4.739,5.523c1.477,2.252 3.064,4.412 4.861,6.421c2.253,-0.955 4.46,-1.975 6.616,-3.053c1.4,1.479 2.89,2.868 4.335,4.309c1.598,1.27 3.154,2.601 4.784,3.815c-0.82,2.269 -1.585,4.575 -2.272,6.924c2.193,1.555 4.53,2.885 6.929,4.093c1.714,-1.749 3.363,-3.514 4.949,-5.342c1.889,0.763 3.752,1.599 5.669,2.301c1.961,0.559 3.892,1.245 5.871,1.697c0.114,2.408 0.303,4.833 0.557,7.266c2.629,0.61 5.298,0.922 7.974,1.121c0.917,-2.267 1.758,-4.539 2.517,-6.821l6.12,-0.049l6.083,-0.658c1.022,2.182 2.108,4.343 3.279,6.484c2.641,-0.505 5.256,-1.111 7.793,-2.014c-0.019,-2.456 -0.111,-4.884 -0.284,-7.291c1.926,-0.679 3.762,-1.586 5.64,-2.356c1.825,-0.923 3.586,-1.972 5.377,-2.944c1.779,1.633 3.616,3.207 5.519,4.739c2.252,-1.477 4.419,-3.063 6.417,-4.861c-0.964,-2.245 -1.976,-4.46 -3.054,-6.611c1.48,-1.405 2.877,-2.895 4.313,-4.344c1.266,-1.594 2.601,-3.141 3.815,-4.776c2.265,0.816 4.58,1.581 6.928,2.273c1.551,-2.202 2.877,-4.531 4.081,-6.934c-1.74,-1.714 -3.514,-3.363 -5.33,-4.94c0.754,-1.889 1.591,-3.761 2.289,-5.679c0.567,-1.955 1.249,-3.882 1.705,-5.87c2.408,-0.114 4.833,-0.294 7.271,-0.557c0.601,-2.629 0.912,-5.29 1.112,-7.974c-2.267,-0.913 -4.54,-1.75 -6.821,-2.513l-0.041,-6.119l-0.657,-6.087c2.169,-1.019 4.335,-2.117 6.479,-3.279c-0.5,-2.642 -1.11,-5.261 -2.018,-7.794c-2.448,0.02 -4.884,0.12 -7.287,0.288c-0.679,-1.926 -1.581,-3.766 -2.368,-5.644c-0.907,-1.824 -1.956,-3.577 -2.927,-5.376c1.628,-1.779 3.198,-3.613 4.726,-5.52c-1.472,-2.256 -3.059,-4.419 -4.857,-6.417c-2.248,0.956 -4.459,1.976 -6.606,3.046c-1.402,-1.471 -2.9,-2.86 -4.349,-4.305c-1.589,-1.274 -3.15,-2.597 -4.776,-3.815c0.825,-2.265 1.577,-4.572 2.273,-6.924c-2.198,-1.551 -4.522,-2.876 -6.93,-4.085c-1.717,1.736 -3.366,3.506 -4.944,5.339c-1.897,-0.764 -3.76,-1.6 -5.67,-2.302c-1.96,-0.559 -3.892,-1.237 -5.879,-1.697c-0.106,-2.412 -0.294,-4.833 -0.556,-7.275c-2.621,-0.609 -5.295,-0.904 -7.98,-1.104c-0.916,2.263 -1.745,4.536 -2.508,6.813l-6.123,0.041l-6.084,0.665c-1.014,-2.177 -2.103,-4.346 -3.27,-6.487c-2.641,0.501 -5.26,1.115 -7.802,2.018c0.028,2.457 0.116,4.888 0.285,7.287c-1.918,0.68 -3.754,1.586 -5.641,2.359c-1.815,0.916 -3.577,1.961 -5.367,2.937c-1.779,-1.637 -3.622,-3.199 -5.528,-4.727c-2.244,1.473 -4.415,3.051 -6.417,4.849c0.955,2.261 1.976,4.459 3.054,6.615c-1.48,1.401 -2.874,2.903 -4.314,4.348c-1.266,1.589 -2.592,3.15 -3.811,4.776c-2.269,-0.821 -4.567,-1.576 -6.924,-2.273c-1.554,2.189 -2.884,4.531 -4.093,6.93c1.749,1.718 3.514,3.367 5.343,4.94c-0.759,1.902 -1.604,3.764 -2.298,5.682c-0.559,1.956 -1.241,3.892 -1.697,5.875c-2.411,0.102 -4.836,0.29 -7.27,0.553c-0.609,2.621 -0.917,5.29 -1.112,7.975c2.267,0.912 4.535,1.749 6.812,2.512l0.045,6.123l0.662,6.075Z" style="fill:#fff;fill-rule:nonzero;"/><path d="M570.531,723.084c-3.529,-5.498 -5.934,-11.671 -7.11,-18.138c-1.138,-6.464 -1.017,-13.099 0.39,-19.477c1.395,-6.374 4.063,-12.48 7.803,-17.857c3.748,-5.365 8.551,-9.991 14.051,-13.507c5.493,-3.526 11.675,-5.926 18.142,-7.106c6.464,-1.134 13.094,-1.013 19.473,0.382c6.37,1.402 12.475,4.07 17.849,7.806c5.377,3.752 9.995,8.551 13.511,14.051c3.517,5.497 5.93,11.679 7.106,18.142c1.142,6.468 1.017,13.103 -0.382,19.473c-1.403,6.382 -4.075,12.483 -7.807,17.866c-3.747,5.361 -8.559,9.99 -14.051,13.498c-5.497,3.526 -11.674,5.93 -18.141,7.11c-6.469,1.138 -13.095,1.013 -19.473,-0.385c-6.37,-1.403 -12.476,-4.066 -17.854,-7.807c-5.373,-3.748 -9.99,-8.55 -13.507,-14.051Zm-27.654,-8.959c-2.793,1.776 -5.582,3.678 -8.173,5.684c1.275,4.048 2.751,8.024 4.647,11.836c3.309,-0.308 6.529,-0.721 9.833,-1.334l2.737,4.7c0.976,1.523 2.087,2.959 3.133,4.433c-1.884,2.711 -3.727,5.562 -5.352,8.402c2.72,3.262 5.631,6.337 8.822,9.14c2.907,-1.535 5.769,-3.203 8.569,-5.025l4.307,3.309l4.589,2.893c-0.729,3.26 -1.308,6.514 -1.741,9.784c3.734,2.016 7.628,3.683 11.629,5.106c2.101,-2.509 4.14,-5.227 6.023,-7.929c1.748,0.474 3.48,1.014 5.251,1.406l5.351,0.941c0.57,3.31 1.304,6.475 2.156,9.686c4.238,0.457 8.471,0.471 12.714,0.257c0.975,-3.128 1.81,-6.403 2.512,-9.64l5.367,-0.69l5.288,-1.213c1.781,2.79 3.687,5.574 5.689,8.173c4.059,-1.27 8.024,-2.751 11.834,-4.638c-0.299,-3.313 -0.712,-6.533 -1.329,-9.837l4.704,-2.737c1.52,-0.98 2.956,-2.091 4.429,-3.142c2.711,1.888 5.563,3.727 8.403,5.356c3.262,-2.715 6.344,-5.629 9.136,-8.821c-1.531,-2.907 -3.204,-5.765 -5.013,-8.573l3.296,-4.3l2.894,-4.596c3.268,0.738 6.517,1.312 9.784,1.74c2.024,-3.725 3.691,-7.622 5.11,-11.624c-2.505,-2.1 -5.232,-4.136 -7.926,-6.027c0.466,-1.749 1.011,-3.481 1.403,-5.247l0.941,-5.355c3.305,-0.571 6.475,-1.3 9.677,-2.153c0.465,-4.238 0.48,-8.474 0.261,-12.713c-3.128,-0.98 -6.402,-1.81 -9.644,-2.513l-0.685,-5.379l-1.217,-5.28c2.797,-1.776 5.59,-3.686 8.177,-5.684c-1.263,-4.055 -2.751,-8.028 -4.647,-11.839c-3.305,0.303 -6.521,0.721 -9.829,1.329l-2.741,-4.696c-0.98,-1.528 -2.083,-2.959 -3.129,-4.436c1.884,-2.703 3.727,-5.554 5.352,-8.403c-2.724,-3.258 -5.63,-6.336 -8.818,-9.132c-2.919,1.531 -5.769,3.203 -8.577,5.017l-4.303,-3.309l-4.592,-2.889c0.733,-3.264 1.311,-6.517 1.74,-9.78c-3.734,-2.02 -7.624,-3.683 -11.624,-5.11c-2.11,2.509 -4.132,5.232 -6.028,7.934c-1.744,-0.474 -3.48,-1.015 -5.247,-1.407l-5.35,-0.949c-0.579,-3.302 -1.3,-6.475 -2.161,-9.686c-4.234,-0.448 -8.471,-0.463 -12.71,-0.248c-0.983,3.119 -1.809,6.398 -2.507,9.631l-5.38,0.698l-5.284,1.213c-1.772,-2.793 -3.691,-5.583 -5.693,-8.177c-4.051,1.266 -8.015,2.751 -11.835,4.646c0.312,3.31 0.729,6.53 1.334,9.829l-4.692,2.742c-1.527,0.976 -2.963,2.083 -4.437,3.137c-2.711,-1.884 -5.566,-3.731 -8.402,-5.356c-3.263,2.719 -6.337,5.63 -9.136,8.818c1.53,2.919 3.195,5.768 5.02,8.573l-3.309,4.307l-2.896,4.588c-3.256,-0.729 -6.514,-1.308 -9.777,-1.732c-2.023,3.725 -3.682,7.619 -5.109,11.616c2.504,2.109 5.222,4.144 7.933,6.032c-0.474,1.744 -1.018,3.476 -1.41,5.246l-0.938,5.356c-3.309,0.574 -6.474,1.296 -9.689,2.152c-0.457,4.234 -0.472,8.475 -0.253,12.714c3.119,0.983 6.399,1.809 9.636,2.507l0.693,5.38l1.209,5.288Z" style="fill:#fff;fill-rule:nonzero;"/><path d="M570.632,283.848c0.011,-17.86 14.5,-32.329 32.352,-32.322c17.864,0.012 32.325,14.492 32.321,32.356c-0.011,17.861 -14.491,32.33 -32.352,32.318c-17.856,-0.007 -32.333,-14.496 -32.321,-32.352Zm-34.774,5.706c-5.174,2.519 -10.267,5.531 -15.257,9.022c0.607,3.132 1.479,6.231 2.319,9.307c5.939,0.352 11.767,0.305 17.444,-0.144c0.759,2.115 1.891,4.078 2.821,6.124c1.009,2.006 2.289,3.874 3.414,5.808c-3.467,4.689 -6.498,9.686 -9.302,15.107c1.975,2.505 4.2,4.801 6.365,7.135c5.42,-2.445 10.555,-5.204 15.378,-8.229c1.666,1.5 3.558,2.739 5.328,4.121c1.843,1.282 3.82,2.372 5.723,3.562c-0.886,5.738 -1.271,11.597 -1.237,17.703c2.92,1.287 5.969,2.308 8.979,3.372c3.667,-4.694 6.93,-9.526 9.782,-14.451c2.171,0.589 4.432,0.754 6.649,1.145c2.215,0.358 4.486,0.302 6.717,0.469c1.883,5.643 4.258,10.854 7.122,16.242c3.184,-0.048 6.33,-0.733 9.498,-1.175c1.107,-5.658 1.721,-11.656 1.96,-17.323c2.21,-0.473 4.315,-1.279 6.427,-2.059c2.144,-0.69 4.139,-1.728 6.168,-2.706c4.294,4.11 8.875,7.704 13.884,11.074c2.793,-1.576 5.29,-3.559 7.846,-5.472c-1.654,-5.516 -3.896,-11.099 -6.333,-16.234c1.733,-1.46 3.23,-3.135 4.726,-4.806c1.585,-1.607 2.859,-3.467 4.217,-5.256c5.72,1.65 11.406,2.704 17.43,3.375c1.748,-2.678 3.025,-5.62 4.422,-8.495c-4.018,-4.117 -8.608,-8.033 -13.141,-11.457c0.858,-2.083 1.398,-4.269 1.946,-6.447c0.65,-2.159 0.939,-4.396 1.276,-6.62c5.801,-1.202 11.417,-2.924 16.989,-5.129c0.256,-3.178 0.162,-6.357 -0.049,-9.547c-5.528,-1.771 -11.192,-3.116 -16.936,-4.037c-0.331,-2.225 -0.615,-4.46 -1.266,-6.627c-0.542,-2.176 -1.084,-4.361 -1.933,-6.448c4.474,-3.715 8.85,-7.929 12.678,-12.446c-1.339,-2.907 -2.774,-5.762 -4.515,-8.445c-5.778,1.036 -11.336,2.436 -16.853,4.307c-1.36,-1.79 -2.633,-3.645 -4.217,-5.253c-1.497,-1.678 -2.993,-3.359 -4.717,-4.813c2.241,-5.381 4.155,-11.113 5.462,-16.896c-2.519,-1.96 -5.124,-3.804 -7.904,-5.391c-4.632,3.576 -8.921,7.411 -12.947,11.631c-2.03,-0.968 -4.026,-2.009 -6.165,-2.709c-2.113,-0.79 -4.216,-1.587 -6.42,-2.065c-0.517,-5.782 -1.509,-11.795 -3.046,-17.504c-3.158,-0.501 -6.312,-0.998 -9.506,-1.063c-2.428,5.42 -4.433,10.64 -6.032,16.288c-2.236,0.171 -4.504,0.106 -6.718,0.462c-2.217,0.39 -4.473,0.547 -6.648,1.135c-3.13,-4.821 -6.772,-9.653 -10.819,-14.098c-2.987,1.134 -6.09,2.014 -8.939,3.486c0.367,5.919 1.082,11.609 2.229,17.222c-1.905,1.19 -3.886,2.279 -5.729,3.561c-1.774,1.373 -3.669,2.606 -5.335,4.115c-5.023,-2.82 -10.495,-5.397 -16.134,-7.454c-2.114,2.387 -4.438,4.594 -6.275,7.22c3.072,5.076 6.322,9.767 9.947,14.222c-1.13,1.945 -2.4,3.806 -3.413,5.812c-0.931,2.041 -2.058,4.011 -2.823,6.121c-5.759,-0.165 -11.796,0.094 -17.76,0.905c-0.752,3.1 -1.768,6.154 -2.196,9.333c5.066,3.057 10.213,5.71 15.424,7.94l-0.337,6.738l0.332,6.735Z" style="fill:#fff;fill-rule:nonzero;"/><path d="M388.124,273.829c-3.944,-6.146 -6.637,-13.06 -7.95,-20.295c-1.276,-7.237 -1.138,-14.656 0.431,-21.783c1.559,-7.137 4.548,-13.965 8.731,-19.983c4.188,-6.005 9.573,-11.174 15.717,-15.108c6.145,-3.944 13.06,-6.627 20.289,-7.947c7.244,-1.272 14.661,-1.139 21.789,0.425c7.131,1.568 13.964,4.553 19.982,8.73c6.004,4.198 11.17,9.574 15.104,15.727c3.948,6.142 6.639,13.06 7.947,20.283c1.276,7.241 1.143,14.66 -0.425,21.792c-1.56,7.136 -4.549,13.964 -8.731,19.982c-4.193,6.004 -9.569,11.174 -15.718,15.104c-6.15,3.943 -13.06,6.636 -20.295,7.95c-7.233,1.277 -14.653,1.14 -21.784,-0.424c-7.136,-1.564 -13.964,-4.553 -19.98,-8.739c-6.005,-4.193 -11.175,-9.565 -15.107,-15.714Zm-30.935,-10.036c-3.125,1.993 -6.242,4.133 -9.14,6.37c1.412,4.537 3.072,8.976 5.193,13.244c3.7,-0.35 7.305,-0.809 11.003,-1.493l3.06,5.251c1.093,1.71 2.333,3.313 3.503,4.965c-2.105,3.027 -4.165,6.219 -5.982,9.402c3.034,3.65 6.294,7.084 9.858,10.221c3.266,-1.717 6.462,-3.585 9.596,-5.62l4.816,3.705l5.136,3.228c-0.82,3.651 -1.465,7.297 -1.946,10.949c4.173,2.256 8.534,4.124 13.004,5.715c2.352,-2.807 4.627,-5.843 6.744,-8.874c1.952,0.525 3.898,1.133 5.867,1.571l5.998,1.058c0.633,3.697 1.451,7.244 2.413,10.833c4.727,0.505 9.468,0.531 14.21,0.285c1.103,-3.499 2.02,-7.157 2.81,-10.785l6.015,-0.77l5.911,-1.361c1.993,3.128 4.129,6.245 6.362,9.151c4.533,-1.424 8.98,-3.079 13.244,-5.2c-0.337,-3.7 -0.805,-7.303 -1.489,-10.996l5.259,-3.064c1.698,-1.095 3.309,-2.337 4.961,-3.509c3.027,2.108 6.219,4.169 9.402,5.987c3.642,-3.042 7.085,-6.301 10.213,-9.86c-1.713,-3.265 -3.581,-6.456 -5.616,-9.596l3.701,-4.816l3.236,-5.135c3.647,0.821 7.289,1.465 10.941,1.944c2.264,-4.169 4.128,-8.526 5.719,-13.001c-2.807,-2.354 -5.847,-4.634 -8.878,-6.743c0.534,-1.958 1.141,-3.898 1.576,-5.871l1.052,-5.982c3.711,-0.646 7.245,-1.465 10.838,-2.422c0.509,-4.732 0.523,-9.478 0.281,-14.215c-3.487,-1.103 -7.157,-2.029 -10.773,-2.81l-0.778,-6.015l-1.353,-5.911c3.116,-1.994 6.232,-4.125 9.139,-6.37c-1.42,-4.529 -3.075,-8.972 -5.192,-13.24c-3.704,0.345 -7.308,0.818 -10.999,1.485l-3.065,-5.251c-1.094,-1.702 -2.332,-3.313 -3.509,-4.966c2.108,-3.022 4.177,-6.214 5.995,-9.397c-3.05,-3.642 -6.3,-7.084 -9.868,-10.213c-3.265,1.713 -6.46,3.573 -9.595,5.607l-4.813,-3.692l-5.139,-3.236c0.821,-3.651 1.461,-7.293 1.948,-10.94c-4.173,-2.265 -8.531,-4.125 -13.005,-5.72c-2.358,2.806 -4.634,5.847 -6.752,8.877c-1.945,-0.532 -3.885,-1.14 -5.866,-1.575l-5.983,-1.052c-0.645,-3.703 -1.459,-7.253 -2.413,-10.838c-4.741,-0.509 -9.48,-0.531 -14.225,-0.285c-1.09,3.492 -2.021,7.161 -2.797,10.777l-6.023,0.778l-5.908,1.353c-1.993,-3.124 -4.125,-6.241 -6.37,-9.139c-4.533,1.42 -8.972,3.071 -13.235,5.188c0.341,3.704 0.805,7.303 1.48,11.003l-5.245,3.066c-1.709,1.098 -3.311,2.332 -4.964,3.509c-3.035,-2.105 -6.218,-4.178 -9.399,-5.988c-3.647,3.038 -7.09,6.301 -10.224,9.864c1.717,3.252 3.584,6.456 5.612,9.596l-3.692,4.804l-3.235,5.143c-3.651,-0.821 -7.295,-1.461 -10.949,-1.948c-2.262,4.173 -4.124,8.53 -5.713,13.005c2.807,2.35 5.843,4.634 8.872,6.743c-0.525,1.958 -1.134,3.89 -1.57,5.875l-1.054,5.983c-3.701,0.645 -7.243,1.46 -10.837,2.413c-0.513,4.735 -0.529,9.481 -0.284,14.219c3.494,1.095 7.155,2.029 10.779,2.802l0.777,6.019l1.354,5.911Z" style="fill:#fff;fill-rule:nonzero;"/><path d="M577.108,117.862c2.53,-17.279 18.579,-29.239 35.862,-26.713c17.279,2.53 29.243,18.588 26.713,35.866c-2.53,17.279 -18.588,29.239 -35.862,26.709c-17.279,-2.526 -29.243,-18.584 -26.713,-35.862Zm-34.454,0.62c-5.365,1.705 -10.719,3.903 -16.041,6.575c0.144,3.124 0.547,6.231 0.935,9.337c5.699,1.172 11.34,1.952 16.899,2.318c0.443,2.157 1.248,4.217 1.861,6.327c0.698,2.085 1.671,4.064 2.489,6.103c-4.015,4.045 -7.656,8.452 -11.133,13.308c1.557,2.696 3.387,5.234 5.161,7.802c5.584,-1.608 10.939,-3.551 16.038,-5.799c1.404,1.684 3.052,3.154 4.579,4.741c1.596,1.496 3.365,2.828 5.028,4.253c-1.664,5.43 -2.868,11.04 -3.695,16.95c2.646,1.662 5.449,3.076 8.213,4.534c4.214,-4.029 8.055,-8.235 11.509,-12.6c2.02,0.876 4.181,1.351 6.275,2.044c2.091,0.663 4.288,0.923 6.437,1.398c1.021,5.735 2.584,11.103 4.594,16.725c3.09,0.397 6.234,0.183 9.352,0.202c1.87,-5.321 3.31,-11.029 4.35,-16.486c2.202,-0.153 4.348,-0.622 6.503,-1.09c2.173,-0.363 4.253,-1.091 6.353,-1.743c3.575,4.574 7.496,8.71 11.87,12.679c2.924,-1.146 5.624,-2.707 8.37,-4.199c-0.832,-5.568 -2.21,-11.283 -3.838,-16.602c1.878,-1.17 3.558,-2.579 5.243,-3.992c1.766,-1.324 3.26,-2.949 4.827,-4.486c5.291,2.411 10.658,4.226 16.391,5.726c2.065,-2.345 3.717,-5.012 5.476,-7.597c-3.31,-4.553 -7.199,-8.979 -11.098,-12.938c1.127,-1.899 1.95,-3.935 2.784,-5.965c0.933,-1.999 1.536,-4.123 2.175,-6.229c5.787,-0.342 11.458,-1.217 17.164,-2.567c0.698,-3.045 1.053,-6.137 1.293,-9.245c-5.094,-2.49 -10.388,-4.597 -15.816,-6.294c-0.006,-2.205 0.033,-4.403 -0.292,-6.586c-0.22,-2.189 -0.427,-4.378 -0.955,-6.52c4.848,-2.957 9.677,-6.428 14.016,-10.257c-0.882,-2.999 -1.871,-5.964 -3.177,-8.806c-5.731,0.187 -11.317,0.763 -16.918,1.793c-1.063,-1.93 -2.036,-3.904 -3.338,-5.686c-1.212,-1.826 -2.418,-3.669 -3.887,-5.319c2.928,-4.887 5.59,-10.175 7.67,-15.579c-2.157,-2.262 -4.426,-4.406 -6.887,-6.333c-4.98,2.807 -9.683,5.919 -14.169,9.433c-1.83,-1.231 -3.61,-2.521 -5.594,-3.495c-1.924,-1.053 -3.847,-2.131 -5.911,-2.897c0.315,-5.675 0.204,-11.627 -0.479,-17.369c-2.988,-0.938 -5.973,-1.866 -9.046,-2.379c-3.117,4.896 -5.793,9.686 -8.142,14.922c-2.182,-0.159 -4.367,-0.532 -6.565,-0.505c-2.196,0.069 -4.403,-0.092 -6.59,0.166c-2.347,-5.113 -5.199,-10.3 -8.484,-15.177c-3.05,0.687 -6.17,1.099 -9.136,2.117c-0.484,5.776 -0.598,11.385 -0.277,16.983c-2.01,0.883 -4.076,1.653 -6.046,2.63c-1.906,1.086 -3.907,2.015 -5.746,3.234c-4.458,-3.427 -9.386,-6.696 -14.557,-9.484c-2.374,2.008 -4.947,3.811 -7.093,6.1c2.258,5.337 4.745,10.347 7.628,15.173c-1.369,1.716 -2.867,3.341 -4.129,5.136c-1.194,1.84 -2.558,3.586 -3.599,5.52c-5.542,-0.966 -11.424,-1.565 -17.307,-1.622c-1.17,2.895 -2.584,5.706 -3.439,8.717c4.467,3.678 9.077,6.96 13.811,9.862l-1.293,6.473l-0.617,6.565Z" style="fill:#fff;fill-rule:nonzero;"/><path d="M296.608,534.692c-3.573,-5.575 -6.022,-11.843 -7.208,-18.394c-1.155,-6.562 -1.037,-13.293 0.394,-19.761c1.406,-6.465 4.119,-12.66 7.913,-18.114c3.8,-5.445 8.675,-10.132 14.25,-13.698c5.575,-3.575 11.843,-6.016 18.396,-7.211c6.563,-1.149 13.287,-1.03 19.759,0.387c6.46,1.421 12.655,4.132 18.109,7.923c5.452,3.799 10.139,8.673 13.706,14.248c3.573,5.579 6.016,11.851 7.208,18.398c1.149,6.565 1.031,13.292 -0.393,19.757c-1.413,6.465 -4.126,12.663 -7.914,18.113c-3.806,5.449 -8.675,10.141 -14.25,13.703c-5.582,3.579 -11.844,6.02 -18.402,7.206c-6.563,1.157 -13.288,1.039 -19.753,-0.386c-6.466,-1.413 -12.662,-4.124 -18.115,-7.915c-5.447,-3.803 -10.133,-8.673 -13.7,-14.256Zm-28.05,-9.097c-2.834,1.807 -5.659,3.744 -8.283,5.778c1.281,4.106 2.786,8.135 4.701,12.001c3.359,-0.316 6.626,-0.727 9.98,-1.344l2.769,4.764c0.995,1.537 2.122,2.999 3.187,4.494c-1.911,2.751 -3.788,5.642 -5.428,8.523c2.758,3.307 5.705,6.421 8.941,9.269c2.958,-1.557 5.852,-3.248 8.701,-5.092l4.37,3.355l4.646,2.93c-0.739,3.31 -1.325,6.608 -1.754,9.929c3.78,2.04 7.727,3.731 11.788,5.175c2.134,-2.536 4.197,-5.294 6.114,-8.045c1.766,0.484 3.522,1.025 5.324,1.424l5.427,0.958c0.582,3.352 1.319,6.568 2.186,9.83c4.293,0.46 8.596,0.471 12.895,0.26c0.991,-3.173 1.834,-6.501 2.546,-9.775l5.448,-0.71l5.365,-1.225c1.805,2.832 3.744,5.657 5.768,8.286c4.113,-1.287 8.136,-2.785 12.003,-4.706c-0.303,-3.359 -0.726,-6.626 -1.346,-9.968l4.767,-2.783c1.544,-0.991 3,-2.122 4.5,-3.183c2.744,1.911 5.635,3.786 8.518,5.434c3.314,-2.766 6.427,-5.712 9.267,-8.943c-1.548,-2.962 -3.24,-5.858 -5.086,-8.706l3.348,-4.359l2.937,-4.665c3.31,0.745 6.612,1.326 9.922,1.766c2.05,-3.786 3.74,-7.732 5.187,-11.786c-2.547,-2.141 -5.306,-4.204 -8.049,-6.119c0.476,-1.769 1.025,-3.525 1.424,-5.32l0.952,-5.426c3.358,-0.588 6.575,-1.327 9.828,-2.194c0.469,-4.291 0.479,-8.595 0.26,-12.897c-3.173,-0.99 -6.493,-1.832 -9.775,-2.541l-0.704,-5.456l-1.231,-5.359c2.834,-1.804 5.659,-3.745 8.289,-5.774c-1.281,-4.106 -2.78,-8.134 -4.707,-12.002c-3.353,0.313 -6.621,0.732 -9.968,1.346l-2.781,-4.761c-0.989,-1.545 -2.122,-3.007 -3.18,-4.503c1.91,-2.742 3.781,-5.634 5.428,-8.523c-2.759,-3.306 -5.705,-6.42 -8.942,-9.26c-2.959,1.553 -5.859,3.247 -8.701,5.087l-4.364,-3.354l-4.658,-2.93c0.745,-3.31 1.331,-6.613 1.766,-9.925c-3.785,-2.048 -7.733,-3.74 -11.794,-5.179c-2.134,2.54 -4.197,5.299 -6.114,8.041c-1.772,-0.476 -3.528,-1.026 -5.324,-1.424l-5.421,-0.958c-0.588,-3.353 -1.319,-6.568 -2.199,-9.822c-4.286,-0.46 -8.589,-0.479 -12.895,-0.26c-0.991,3.173 -1.827,6.493 -2.539,9.775l-5.454,0.706l-5.359,1.225c-1.805,-2.828 -3.744,-5.661 -5.775,-8.283c-4.106,1.28 -8.135,2.777 -12.002,4.699c0.309,3.359 0.732,6.626 1.345,9.98l-4.76,2.779c-1.544,0.987 -3.006,2.118 -4.5,3.179c-2.75,-1.911 -5.635,-3.79 -8.524,-5.431c-3.308,2.759 -6.421,5.705 -9.268,8.947c1.561,2.955 3.253,5.848 5.093,8.699l-3.354,4.355l-2.937,4.664c-3.304,-0.744 -6.605,-1.325 -9.923,-1.757c-2.043,3.778 -3.732,7.724 -5.174,11.787c2.541,2.132 5.3,4.199 8.043,6.114c-0.483,1.773 -1.031,3.529 -1.425,5.324l-0.958,5.426c-3.357,0.584 -6.567,1.323 -9.827,2.185c-0.461,4.296 -0.473,8.596 -0.255,12.897c3.167,0.995 6.494,1.832 9.776,2.546l0.704,5.452l1.225,5.359Z" style="fill:#fff;fill-rule:nonzero;"/><path d="M267.036,354.283c2.53,-17.279 18.582,-29.239 35.862,-26.713c17.279,2.53 29.244,18.588 26.713,35.866c-2.53,17.279 -18.588,29.238 -35.862,26.709c-17.279,-2.526 -29.244,-18.584 -26.713,-35.862Zm-34.453,0.62c-5.365,1.705 -10.719,3.903 -16.043,6.575c0.147,3.124 0.551,6.235 0.937,9.337c5.698,1.176 11.342,1.952 16.898,2.318c0.446,2.157 1.25,4.217 1.862,6.326c0.699,2.086 1.672,4.065 2.496,6.104c-4.021,4.049 -7.664,8.452 -11.141,13.308c1.558,2.696 3.394,5.234 5.161,7.801c5.584,-1.607 10.941,-3.55 16.037,-5.798c1.404,1.684 3.053,3.154 4.579,4.741c1.599,1.496 3.366,2.828 5.03,4.253c-1.663,5.43 -2.869,11.04 -3.694,16.95c2.645,1.662 5.45,3.076 8.211,4.534c4.214,-4.029 8.057,-8.235 11.509,-12.6c2.02,0.876 4.181,1.347 6.274,2.044c2.095,0.663 4.288,0.923 6.437,1.398c1.026,5.735 2.585,11.103 4.595,16.725c3.089,0.397 6.235,0.183 9.353,0.202c1.868,-5.321 3.312,-11.033 4.351,-16.486c2.201,-0.153 4.349,-0.622 6.503,-1.09c2.172,-0.363 4.252,-1.091 6.352,-1.743c3.576,4.574 7.496,8.702 11.869,12.674c2.926,-1.137 5.624,-2.711 8.371,-4.194c-0.83,-5.568 -2.209,-11.283 -3.838,-16.602c1.877,-1.166 3.557,-2.579 5.243,-3.988c1.766,-1.328 3.259,-2.949 4.826,-4.49c5.292,2.411 10.659,4.23 16.391,5.726c2.067,-2.345 3.718,-5.012 5.479,-7.597c-3.311,-4.549 -7.2,-8.979 -11.1,-12.939c1.128,-1.898 1.949,-3.934 2.783,-5.964c0.934,-1.999 1.536,-4.119 2.174,-6.229c5.788,-0.342 11.459,-1.213 17.166,-2.562c0.698,-3.05 1.052,-6.138 1.292,-9.25c-5.093,-2.49 -10.385,-4.601 -15.814,-6.294c-0.006,-2.201 0.03,-4.403 -0.292,-6.586c-0.22,-2.185 -0.426,-4.378 -0.958,-6.52c4.85,-2.957 9.679,-6.428 14.019,-10.252c-0.884,-3.004 -1.873,-5.969 -3.18,-8.811c-5.73,0.187 -11.315,0.763 -16.917,1.797c-1.061,-1.934 -2.034,-3.908 -3.335,-5.69c-1.214,-1.826 -2.42,-3.669 -3.887,-5.319c2.927,-4.883 5.588,-10.175 7.667,-15.579c-2.157,-2.262 -4.425,-4.406 -6.888,-6.329c-4.98,2.803 -9.682,5.915 -14.167,9.429c-1.828,-1.23 -3.609,-2.521 -5.593,-3.49c-1.924,-1.058 -3.847,-2.136 -5.91,-2.91c0.311,-5.667 0.204,-11.619 -0.482,-17.362c-2.987,-0.937 -5.97,-1.865 -9.045,-2.378c-3.116,4.896 -5.794,9.685 -8.142,14.922c-2.181,-0.159 -4.367,-0.532 -6.566,-0.505c-2.196,0.069 -4.402,-0.092 -6.591,0.166c-2.346,-5.113 -5.198,-10.296 -8.481,-15.177c-3.049,0.683 -6.171,1.099 -9.137,2.117c-0.483,5.777 -0.596,11.385 -0.278,16.979c-2.011,0.886 -4.076,1.661 -6.043,2.634c-1.909,1.086 -3.911,2.015 -5.748,3.234c-4.457,-3.427 -9.385,-6.696 -14.556,-9.484c-2.373,2.008 -4.947,3.815 -7.089,6.1c2.253,5.337 4.739,10.347 7.626,15.173c-1.372,1.716 -2.872,3.341 -4.133,5.136c-1.191,1.84 -2.553,3.587 -3.598,5.52c-5.542,-0.966 -11.423,-1.565 -17.307,-1.622c-1.168,2.895 -2.585,5.706 -3.438,8.717c4.465,3.678 9.076,6.964 13.809,9.862l-1.285,6.473l-0.624,6.565Z" style="fill:#fff;fill-rule:nonzero;"/><path d="M897.182,382.379c-19.551,-4.87 -38.466,-9.579 -57.384,-14.284c-0.128,0.163 -0.247,0.327 -0.365,0.486c13.9,12.916 27.8,25.844 41.984,39.033c-14.197,13.159 -28.162,26.108 -42.12,39.049c0.082,0.16 0.161,0.302 0.243,0.454c19.054,-4.71 38.095,-9.428 57.612,-14.259c5.167,17.835 10.296,35.545 15.429,53.257c0.205,-0.021 0.416,-0.045 0.618,-0.07c2.679,-9.248 5.355,-18.514 8.039,-27.758c2.245,-7.736 4.544,-15.464 6.731,-23.216c0.456,-1.645 1.03,-2.139 2.805,-1.692c15.89,4.016 31.807,7.933 47.717,11.883c2.586,0.645 5.166,1.293 8.064,1.49c-13.936,-12.948 -27.864,-25.895 -42.08,-39.11c14.105,-13.09 28.065,-26.023 42.019,-38.972c-0.097,-0.178 -0.199,-0.351 -0.301,-0.529c-5.693,1.417 -11.386,2.846 -17.09,4.242c-12.691,3.13 -25.415,6.188 -38.083,9.424c-2.071,0.533 -2.607,-0.098 -3.118,-1.922c-3.559,-12.58 -7.216,-25.133 -10.852,-37.693c-1.239,-4.292 -2.494,-8.584 -4.401,-13.01c-5.134,17.664 -10.269,35.333 -15.467,53.197Z" style="fill:#ed4133;fill-rule:nonzero;"/><path d="M703.074,382.391c-19.552,-4.867 -38.466,-9.58 -57.385,-14.281c-0.127,0.159 -0.246,0.323 -0.365,0.487c13.901,12.911 27.797,25.839 41.985,39.028c-14.197,13.164 -28.163,26.108 -42.12,39.054c0.078,0.155 0.161,0.298 0.243,0.449c19.049,-4.705 38.095,-9.428 57.612,-14.258c5.167,17.834 10.291,35.549 15.424,53.26c0.21,-0.024 0.417,-0.049 0.618,-0.069c2.684,-9.253 5.36,-18.514 8.044,-27.763c2.245,-7.735 4.544,-15.464 6.731,-23.215c0.456,-1.646 1.03,-2.139 2.801,-1.693c15.894,4.016 31.81,7.938 47.717,11.883c2.59,0.645 5.17,1.293 8.068,1.49c-13.936,-12.947 -27.864,-25.894 -42.08,-39.106c14.1,-13.09 28.065,-26.026 42.019,-38.976c-0.098,-0.173 -0.203,-0.351 -0.301,-0.528c-5.693,1.416 -11.386,2.846 -17.091,4.245c-12.69,3.127 -25.414,6.184 -38.082,9.425c-2.076,0.528 -2.612,-0.099 -3.122,-1.923c-3.56,-12.58 -7.217,-25.137 -10.848,-37.697c-1.239,-4.291 -2.498,-8.584 -4.401,-13.001c-5.135,17.66 -10.269,35.324 -15.467,53.189Z" style="fill:#ed4133;fill-rule:nonzero;"/><path d="M513.854,380.584c-19.556,-4.867 -38.471,-9.576 -57.389,-14.281l-0.365,0.486c13.901,12.912 27.8,25.84 41.988,39.029c-14.2,13.163 -28.166,26.108 -42.123,39.053c0.081,0.156 0.164,0.299 0.246,0.45c19.05,-4.706 38.096,-9.428 57.608,-14.259c5.163,17.834 10.287,35.549 15.429,53.261c0.202,-0.025 0.416,-0.049 0.618,-0.07c2.679,-9.252 5.36,-18.514 8.039,-27.762c2.245,-7.736 4.548,-15.464 6.728,-23.216c0.463,-1.645 1.033,-2.139 2.808,-1.692c15.89,4.016 31.807,7.937 47.718,11.883c2.589,0.645 5.17,1.297 8.063,1.489c-13.936,-12.947 -27.864,-25.894 -42.08,-39.105c14.105,-13.09 28.07,-26.027 42.023,-38.976c-0.101,-0.174 -0.203,-0.351 -0.3,-0.529c-5.693,1.417 -11.387,2.847 -17.091,4.246c-12.695,3.126 -25.419,6.184 -38.087,9.424c-2.071,0.528 -2.607,-0.098 -3.118,-1.922c-3.559,-12.58 -7.216,-25.137 -10.856,-37.698c-1.235,-4.291 -2.49,-8.583 -4.393,-13c-5.138,17.659 -10.273,35.324 -15.466,53.189Z" style="fill:#ed4133;fill-rule:nonzero;"/><path d="M323.057,379.16c-19.553,-4.866 -38.466,-9.575 -57.387,-14.28c-0.125,0.163 -0.245,0.323 -0.365,0.486c13.901,12.916 27.8,25.844 41.987,39.029c-14.198,13.163 -28.163,26.112 -42.122,39.053c0.081,0.156 0.163,0.303 0.245,0.454c19.05,-4.71 38.096,-9.428 57.61,-14.259c5.167,17.835 10.295,35.546 15.428,53.257c0.208,-0.025 0.415,-0.045 0.617,-0.07c2.683,-9.252 5.359,-18.514 8.041,-27.758c2.246,-7.736 4.546,-15.464 6.732,-23.216c0.457,-1.649 1.029,-2.139 2.803,-1.692c15.892,4.016 31.809,7.933 47.717,11.883c2.588,0.645 5.169,1.293 8.064,1.49c-13.934,-12.948 -27.862,-25.894 -42.078,-39.11c14.102,-13.09 28.067,-26.027 42.02,-38.972c-0.098,-0.178 -0.202,-0.355 -0.301,-0.529c-5.693,1.417 -11.386,2.847 -17.09,4.242c-12.692,3.126 -25.41,6.188 -38.084,9.425c-2.073,0.527 -2.61,-0.1 -3.12,-1.923c-3.559,-12.58 -7.217,-25.133 -10.85,-37.693c-1.239,-4.291 -2.496,-8.588 -4.4,-13.005c-5.135,17.66 -10.271,35.328 -15.467,53.188Z" style="fill:#ed4133;fill-rule:nonzero;"/></g></g><clipPath id="_clip5"><path d="M1308.11,6.812l-1540.97,-0.806l-41.871,658.934l-0.202,389.604l1669.05,0.874l66.018,-1038.95l-152.022,-9.66Z"/></clipPath><g clip-path="url(#_clip5)"><path d="M889.811,502.783c6.992,1.075 14.158,1.639 21.451,1.647c78.188,0.042 141.597,-63.853 141.635,-142.709c0.014,-22.557 -5.157,-43.874 -14.381,-62.839c-5.889,-70.665 -54.347,-129.106 -119.423,-149.165c-25.948,-30.624 -64.51,-50.054 -107.578,-50.077c-15.327,-0.005 -30.083,2.456 -43.92,6.992c-28.522,-16.121 -61.412,-25.338 -96.44,-25.355c-37.612,-0.022 -72.769,10.544 -102.715,28.907c-11.802,-1.923 -23.886,-2.945 -36.215,-2.952c-86.459,-0.042 -161.577,48.897 -199.608,120.818c-33.919,15.054 -57.685,49.07 -58.124,88.743c-47.62,30.913 -79.17,84.825 -79.202,146.175c-0.041,81.182 55.098,149.378 129.677,168.53c6.235,60.17 56.661,107.096 117.983,107.131c12.696,0.005 24.92,-2.012 36.399,-5.729c19.347,-2.031 44.002,-8.23 50.741,8.005c12.045,28.972 -22.503,75.873 -26.525,121.698c-0.68,7.8 18.667,6.297 23.295,0.017c45.06,-61.21 58.053,-150.166 119.714,-194.257c27.625,-19.747 34.272,-42.813 31.593,-63.6c20.999,12.444 45.449,19.597 71.559,19.611c71.07,0.036 129.919,-52.755 140.084,-121.591Z" style="fill:none;fill-rule:nonzero;stroke:#6cb4e0;stroke-width:8.33px;"/></g><path d="M116.282,937.869c-0,-24.329 -10.453,-30.817 -26.673,-30.817c-4.505,-0 -10.272,0.18 -12.797,0.36l0,84.163c2.525,0.18 8.292,0.36 12.797,0.36c16.22,0 26.673,-6.488 26.673,-30.818l-0,-23.248Zm-26.673,80.198c-14.959,0 -30.998,-1.441 -38.388,-2.703c-3.424,-0.541 -5.226,-2.163 -5.226,-6.307l0,-119.127c0,-4.146 1.802,-5.766 5.226,-6.307c7.39,-1.262 23.429,-2.705 38.388,-2.705c35.864,0 57.49,18.924 57.49,56.951l-0,23.248c-0,38.027 -21.626,56.95 -57.49,56.95" style="fill:#6cb4e1;fill-rule:nonzero;"/><path d="M226.038,955.17c-0,-13.337 -6.128,-20.004 -16.219,-20.004c-9.913,0 -16.581,6.849 -16.581,20.004l0,0.721l32.799,0l0,-0.721Zm24.691,18.745l-57.49,-0l0,0.358c0,10.273 4.325,19.645 18.563,19.645c11.353,0 27.392,-0.9 34.602,-1.621l0.54,-0c1.983,-0 3.424,0.9 3.424,2.882l0,13.697c0,2.884 -0.721,4.146 -3.783,4.866c-11.535,2.885 -21.267,4.326 -36.947,4.326c-21.805,-0 -45.235,-11.535 -45.235,-46.318l-0,-12.615c-0,-29.016 16.941,-47.399 45.596,-47.399c29.556,0 44.514,20.186 44.514,47.399l-0,10.453c-0,2.704 -1.441,4.327 -3.784,4.327" style="fill:#6cb4e1;fill-rule:nonzero;"/><path d="M364.09,917.324l-22.707,81.821c-4.507,16.038 -15.5,18.922 -26.133,18.922c-10.633,-0 -21.447,-2.884 -25.952,-18.922l-22.528,-81.821c-0.18,-0.361 -0.18,-0.721 -0.18,-1.082c-0,-1.8 1.262,-3.063 2.883,-3.063l23.789,0c1.802,0 3.245,1.622 3.786,3.784l15.498,70.649c0.542,2.702 1.443,3.782 2.704,3.782c1.26,0 2.343,-1.08 2.883,-3.782l15.499,-70.649c0.541,-2.162 1.983,-3.784 3.786,-3.784l23.788,0c1.622,0 3.064,1.263 3.064,3.245c0,0.178 0,0.539 -0.18,0.9" style="fill:#6cb4e1;fill-rule:nonzero;"/><path d="M453.3,938.771c0,-21.627 -7.208,-30.817 -22.346,-30.817c-15.139,-0 -22.167,9.19 -22.167,30.817l-0,21.447c-0,21.625 7.028,30.816 22.167,30.816c15.138,0 22.346,-9.191 22.346,-30.816l-0,-21.447Zm-22.346,79.297c-29.736,-0 -53.347,-16.04 -53.347,-57.85l0,-21.447c0,-41.812 23.611,-57.852 53.347,-57.852c29.733,0 53.346,16.04 53.346,57.852l-0,21.447c-0,41.81 -23.613,57.85 -53.346,57.85" style="fill:#eb4033;fill-rule:nonzero;"/><path d="M564.679,957.873c0,-12.795 -3.242,-21.986 -16.037,-21.986c-5.95,0 -11.354,0.36 -14.779,0.901l-0,56.23c4.325,0.541 10.454,1.079 14.779,1.079c12.795,0 16.037,-9.551 16.037,-22.166l0,-14.058Zm-16.037,60.195c-3.604,-0 -9.554,-0.541 -14.779,-1.263l-0,31.18c-0,1.982 -1.621,3.603 -3.605,3.603l-21.808,0c-1.979,0 -3.783,-1.621 -3.783,-3.603l-0,-126.335c-0,-2.884 0.721,-4.147 5.587,-5.227c10.271,-2.523 24.509,-4.687 38.388,-4.687c29.196,0 45.233,16.943 45.233,46.137l0,14.058c0,28.294 -14.775,46.137 -45.233,46.137" style="fill:#eb4033;fill-rule:nonzero;"/><path d="M646.325,1018.07c-9.913,-0 -23.612,-1.442 -32.8,-3.966c-2.167,-0.539 -3.425,-1.982 -3.425,-4.144l-0,-14.598c-0,-1.801 1.258,-3.426 3.425,-3.426l0.721,0c9.729,1.262 24.867,2.525 30.637,2.525c8.65,-0 10.634,-2.343 10.634,-7.028c-0,-2.703 -1.625,-4.686 -6.671,-7.571l-23.429,-13.515c-10.092,-5.769 -16.038,-14.959 -16.038,-26.674c0,-18.202 12.075,-27.935 36.946,-27.935c14.237,-0 22.887,1.804 32.079,4.146c2.163,0.541 3.421,1.982 3.421,4.146l0,14.597c0,2.162 -1.079,3.424 -2.883,3.424l-0.717,0c-5.229,-0.721 -20.729,-2.342 -29.921,-2.342c-7.025,-0 -9.55,1.08 -9.55,5.224c0,2.705 1.983,4.147 5.588,6.31l22.346,12.794c14.958,8.653 18.204,18.023 18.204,27.755c-0,16.941 -12.254,30.278 -38.567,30.278" style="fill:#eb4033;fill-rule:nonzero;"/><path d="M775.363,937.869c-0,-24.329 -10.455,-30.817 -26.671,-30.817c-4.509,-0 -10.275,0.18 -12.796,0.36l-0,84.163c2.521,0.18 8.287,0.36 12.796,0.36c16.216,0 26.671,-6.488 26.671,-30.818l-0,-23.248Zm-26.671,80.198c-14.959,0 -31,-1.441 -38.388,-2.703c-3.425,-0.541 -5.229,-2.163 -5.229,-6.307l0,-119.127c0,-4.146 1.804,-5.766 5.229,-6.307c7.388,-1.262 23.429,-2.705 38.388,-2.705c35.862,0 57.487,18.924 57.487,56.951l0,23.248c0,38.027 -21.625,56.95 -57.487,56.95" style="fill:#162b59;fill-rule:nonzero;"/><path d="M883.317,936.788c-3.425,-0.542 -8.829,-0.9 -14.779,-0.9c-12.796,-0 -16.217,9.19 -16.217,21.985l-0,14.058c-0,12.796 3.421,22.166 16.216,22.166c5.951,-0 11.355,-0.538 14.78,-1.079l-0,-56.231Zm23.429,76.595c-10.275,2.523 -24.329,4.686 -38.208,4.686c-29.196,-0 -45.234,-16.942 -45.234,-46.137l0,-14.058c0,-29.194 16.038,-46.137 45.234,-46.137c13.879,-0 27.933,2.164 38.208,4.687c4.867,1.082 5.587,2.343 5.587,5.226l0,86.507c0,2.882 -0.72,4.144 -5.587,5.226" style="fill:#162b59;fill-rule:nonzero;"/><path d="M979.375,1052.85c-15.496,0 -27.933,-2.704 -34.421,-4.865c-2.521,-0.902 -3.604,-1.984 -3.604,-4.685l0,-12.076c0,-1.804 1.263,-3.244 3.246,-3.244l0.358,-0c8.109,0.721 25.771,2.162 34.421,2.162c12.438,0 14.958,-2.884 14.958,-13.337l0,-1.981c-3.241,0.719 -10.991,1.621 -15.137,1.621c-30.454,-0 -45.233,-18.02 -45.233,-46.318l-0,-53.345c-0,-1.98 1.62,-3.603 3.6,-3.603l21.808,-0c1.983,-0 3.608,1.623 3.608,3.603l0,53.345c0,12.619 3.421,22.348 16.217,22.348c4.325,0 10.817,-0.54 15.137,-1.081l0,-74.612c0,-1.98 1.625,-3.603 3.605,-3.603l21.45,-0c1.983,-0 3.604,1.623 3.604,3.603l-0,100.023c-0,25.954 -13.879,36.045 -43.617,36.045" style="fill:#162b59;fill-rule:nonzero;"/><path d="M1078.32,1018.07c-9.913,-0 -23.608,-1.442 -32.8,-3.966c-2.163,-0.539 -3.425,-1.982 -3.425,-4.144l-0,-14.598c-0,-1.801 1.262,-3.426 3.425,-3.426l0.721,0c9.733,1.262 24.871,2.525 30.637,2.525c8.65,-0 10.634,-2.343 10.634,-7.028c-0,-2.703 -1.621,-4.686 -6.667,-7.571l-23.429,-13.515c-10.096,-5.769 -16.038,-14.959 -16.038,-26.674c0,-18.202 12.071,-27.935 36.942,-27.935c14.237,-0 22.887,1.804 32.079,4.146c2.163,0.541 3.425,1.982 3.425,4.146l0,14.597c0,2.162 -1.079,3.424 -2.883,3.424l-0.721,0c-5.229,-0.721 -20.725,-2.342 -29.917,-2.342c-7.029,-0 -9.554,1.08 -9.554,5.224c0,2.705 1.988,4.147 5.588,6.31l22.35,12.794c14.958,8.653 18.2,18.023 18.2,27.755c-0,16.941 -12.255,30.278 -38.567,30.278" style="fill:#162b59;fill-rule:nonzero;"/><path d="M428.383,1161.92c-5.229,0.998 -10.087,1.619 -20.673,1.619c-15.318,-0 -32.879,-8.22 -32.879,-38.483l-0,-17.31c-0,-30.513 17.561,-38.484 32.879,-38.484c7.846,-0 15.444,1.121 20.923,1.994c1.121,0.124 1.992,0.497 1.992,1.619l0,6.351c0,0.746 -0.25,1.37 -1.492,1.37l-0.375,-0c-4.483,-0.374 -13.7,-1.122 -20.924,-1.122c-12.205,-0 -21.669,7.099 -21.669,28.272l-0,17.31c-0,20.924 9.464,28.27 21.669,28.27c7.099,0 16.066,-0.622 20.549,-0.995l0.5,0c1.367,0 1.992,0.623 1.992,1.993l0,5.106c0,1.494 -1.121,2.242 -2.492,2.49" style="fill:#162b59;fill-rule:nonzero;"/><path d="M493.642,1162.67l-5.975,-0c-1.375,-0 -2.492,-1.12 -2.492,-2.49l0,-41.846c0,-10.337 -4.983,-15.693 -16.192,-15.693c-4.983,-0 -10.462,0.747 -14.325,1.868l0,55.671c0,1.37 -1.116,2.49 -2.487,2.49l-5.979,-0c-1.371,-0 -2.492,-1.12 -2.492,-2.49l0,-88.799c0,-1.245 0.875,-2.366 2.242,-2.366l6.354,-0c1.246,-0 2.362,0.996 2.362,2.366l0,23.663c4.238,-0.997 9.467,-1.743 14.325,-1.743c18.684,-0 27.15,10.213 27.15,25.033l0,41.846c0,1.37 -1.12,2.49 -2.491,2.49" style="fill:#162b59;fill-rule:nonzero;"/><path d="M522.908,1162.67l-5.975,-0c-1.37,-0 -2.491,-1.12 -2.491,-2.49l-0,-63.518c-0,-1.37 1.12,-2.49 2.491,-2.49l5.975,0c1.371,0 2.492,1.12 2.492,2.49l0,63.518c0,1.37 -1.121,2.49 -2.492,2.49m0.25,-79.457l-6.35,0c-1.37,0 -2.491,-1.12 -2.491,-2.491l-0,-9.962c-0,-1.372 1.12,-2.492 2.491,-2.492l6.35,0c1.371,0 2.492,1.12 2.492,2.492l0,9.962c0,1.371 -1.121,2.491 -2.492,2.491" style="fill:#162b59;fill-rule:nonzero;"/><path d="M583.683,1162.17c-4.108,0.748 -9.712,1.368 -15.566,1.368c-16.938,-0 -26.529,-11.954 -26.529,-30.264l-0,-9.712c-0,-18.308 9.466,-30.264 26.529,-30.264c5.729,0 11.458,0.622 15.566,1.369c1.996,0.373 2.492,0.996 2.492,2.741l0,4.485c0,1.245 -0.996,1.866 -2.117,1.866l-0.5,0c-5.479,-0.621 -9.337,-0.873 -15.441,-0.873c-9.963,-0 -15.567,6.601 -15.567,20.676l0,9.712c0,13.95 5.479,20.675 15.567,20.675c6.104,-0 9.962,-0.249 15.441,-0.872l0.5,0c1.121,0 2.117,0.623 2.117,1.87l0,4.483c0,1.618 -0.496,2.366 -2.492,2.74" style="fill:#162b59;fill-rule:nonzero;"/><path d="M639.604,1103.76c-3.362,-0.623 -9.342,-1.244 -14.575,-1.244c-12.329,-0 -16.187,8.342 -16.187,21.544l-0,8.719c-0,13.075 3.858,21.546 16.187,21.546c5.233,-0 11.088,-0.625 14.575,-1.247l0,-49.318Zm8.342,56.914c-6.6,1.62 -15.317,2.865 -22.917,2.865c-18.554,-0 -27.15,-12.081 -27.15,-30.76l0,-8.719c0,-18.682 8.471,-30.76 27.15,-30.76c7.475,-0 16.317,1.245 22.917,2.863c2.241,0.498 2.616,1.121 2.616,2.865l0,58.783c0,1.618 -0.375,2.367 -2.616,2.863" style="fill:#162b59;fill-rule:nonzero;"/><path d="M706.979,1103.88c-3.366,-0.623 -8.721,-1.368 -13.95,-1.368c-12.329,-0 -16.812,5.976 -16.812,21.296l-0,9.09c-0,15.942 5.729,21.423 16.812,21.423c3.488,0 10.088,-0.5 13.95,-1.371l0,-49.07Zm-14.325,83.319c-9.462,0 -17.558,-1.246 -21.171,-2.241c-1.745,-0.5 -2.491,-0.997 -2.491,-2.616l-0,-3.612c-0,-1.246 0.996,-1.993 2.241,-1.993l0.375,0c4.359,0.498 14.446,1.495 21.046,1.495c11.584,0 14.325,-2.865 14.325,-15.195l0,-1.245c-2.991,0.747 -10.212,1.743 -13.95,1.743c-15.566,0 -27.771,-7.348 -27.771,-30.637l0,-9.09c0,-20.675 9.088,-30.512 27.771,-30.512c7.346,-0 16.438,1.493 22.292,2.863c2.241,0.498 2.617,1.121 2.617,2.865l-0,63.515c-0,18.806 -8.346,24.66 -25.284,24.66" style="fill:#162b59;fill-rule:nonzero;"/><path d="M777.092,1123.68c-0,-12.702 -5.105,-20.798 -16.813,-20.798c-11.579,0 -16.687,7.971 -16.687,20.798l-0,9.466c-0,12.703 4.983,20.797 16.687,20.797c11.583,0 16.813,-7.969 16.813,-20.797l-0,-9.466Zm-16.813,39.853c-18.308,-0 -27.646,-12.079 -27.646,-30.387l0,-9.466c0,-18.306 9.338,-30.387 27.646,-30.387c18.309,0 27.775,12.081 27.775,30.387l0,9.466c0,18.308 -9.466,30.387 -27.775,30.387" style="fill:#162b59;fill-rule:nonzero;"/><path d="M465.242,803.147c-2.567,-0.907 -5.021,-1.907 -7.363,-2.996c2.392,1.069 4.85,2.067 7.363,2.996" style="fill:#7b401a;fill-rule:nonzero;"/></svg>